<svg xmlns="http://www.w3.org/2000/svg" xmlns:xlink="http://www.w3.org/1999/xlink" width="0" height="0" style="position:absolute">
	
		<symbol id="alert-attention" viewBox="0 0 286.054 286.054">
			<path d="M143.027 0C64.04 0 0 64.04 0 143.027c0 78.996 64.04 143.027 143.027 143.027 78.996 0 143.027-64.022 143.027-143.027C286.054 64.04 222.022 0 143.027 0zm0 259.236c-64.183 0-116.209-52.026-116.209-116.209S78.844 26.818 143.027 26.818s116.209 52.026 116.209 116.209-52.026 116.209-116.209 116.209zm.009-196.51c-10.244 0-17.995 5.346-17.995 13.981v79.201c0 8.644 7.75 13.972 17.995 13.972 9.994 0 17.995-5.551 17.995-13.972V76.707c-.001-8.43-8.001-13.981-17.995-13.981zm0 124.997c-9.842 0-17.852 8.01-17.852 17.86 0 9.833 8.01 17.843 17.852 17.843s17.843-8.01 17.843-17.843c-.001-9.851-8.001-17.86-17.843-17.86z" fill="#ffe03f"></path>
		</symbol>
	
		<symbol id="alert-info" viewBox="0 0 330 330">
			<g fill="#e5e5e5"><path d="M165 0C74.019 0 0 74.02 0 165.001 0 255.982 74.019 330 165 330s165-74.018 165-164.999S255.981 0 165 0zm0 300c-74.44 0-135-60.56-135-134.999S90.56 30 165 30s135 60.562 135 135.001C300 239.44 239.439 300 165 300z"></path><path d="M164.998 70c-11.026 0-19.996 8.976-19.996 20.009 0 11.023 8.97 19.991 19.996 19.991 11.026 0 19.996-8.968 19.996-19.991 0-11.033-8.97-20.009-19.996-20.009zM165 140c-8.284 0-15 6.716-15 15v90c0 8.284 6.716 15 15 15 8.284 0 15-6.716 15-15v-90c0-8.284-6.716-15-15-15z"></path></g>
		</symbol>
	
		<symbol id="alert-invalid" viewBox="0 0 286.054 286.054">
			<path d="M168.352 142.924l25.28-25.28c3.495-3.504 3.495-9.154 0-12.64l-12.64-12.649c-3.495-3.486-9.145-3.495-12.64 0l-25.289 25.289-25.271-25.271c-3.504-3.504-9.163-3.504-12.658-.018l-12.64 12.649c-3.495 3.486-3.486 9.154.018 12.649l25.271 25.271-25.227 25.226a8.93 8.93 0 0 0 0 12.64l12.64 12.649c3.495 3.486 9.145 3.495 12.64 0l25.226-25.226 25.405 25.414c3.504 3.504 9.163 3.504 12.658.009l12.64-12.64c3.495-3.495 3.486-9.154-.009-12.658l-25.404-25.414zM143.027.004C64.031.004 0 64.036 0 143.022c0 78.996 64.031 143.027 143.027 143.027s143.027-64.031 143.027-143.027C286.054 64.045 222.022.004 143.027.004zm0 259.228c-64.183 0-116.209-52.026-116.209-116.209s52.026-116.21 116.209-116.21 116.209 52.026 116.209 116.209-52.026 116.21-116.209 116.21z" fill="#e2574c"></path>
		</symbol>
	
		<symbol id="alert-valid" viewBox="0 0 286.054 286.054">
			<path d="M143.031 0C64.027 0 .004 64.04.004 143.027c0 78.996 64.031 143.027 143.027 143.027 78.987 0 143.018-64.031 143.018-143.027C286.049 64.049 222.018 0 143.031 0zm0 259.236c-64.183 0-116.209-52.026-116.209-116.209S78.857 26.818 143.031 26.818s116.2 52.026 116.2 116.209-52.025 116.209-116.2 116.209zm56.21-177.049c-6.079-3.629-13.847-1.475-17.342 4.827l-47.959 86.147-26.71-32.512c-4.836-5.569-11.263-8.456-17.333-4.827-6.079 3.638-8.591 12.39-4.657 18.004l37.169 45.241c2.78 3.611 5.953 5.775 9.27 6.392l.027.054.34.018c.751.116 11.979 2.19 16.815-6.463l55.048-98.876c3.493-6.313 1.411-14.367-4.668-18.005z" fill="#3db39e"></path>
		</symbol>
	
		<symbol id="arrow" viewBox="0 0 80.61 182.74">
			<path fill="#FFF" d="M1.1 91.43L80.66.83a.51.51 0 0 0 0-.71.49.49 0 0 0-.7.05L.11 91a.51.51 0 0 0-.11.39.54.54 0 0 0 .11.4l79.8 90.87a.48.48 0 0 0 .37.17.46.46 0 0 0 .33-.13.49.49 0 0 0 0-.7z"></path>
		</symbol>
	
		<symbol id="arrow-left" viewBox="0 0 49.656 49.656">
			<path d="M35.121 1.414l2.828 2.828-20.585 20.586 20.585 20.586-2.828 2.828-23.414-23.414z"></path><path d="M35.122 49.656l-24.83-24.828L35.121 0l4.242 4.242-20.585 20.586 20.586 20.586-4.242 4.242zM13.121 24.828l22.001 22 1.414-1.414L15.95 24.828 36.535 4.242l-1.414-1.414-22 22z"></path>
		</symbol>
	
		<symbol id="arrow-right" viewBox="0 0 49.656 49.656">
			<path d="M14.535 48.242l-2.828-2.828 20.585-20.586L11.707 4.242l2.828-2.828 23.414 23.414z"></path><path d="M14.535 49.656l-4.242-4.242 20.585-20.586L10.293 4.242 14.535 0l24.829 24.828-24.829 24.828zm-1.414-4.242l1.414 1.414 22-22-22-22-1.414 1.414 20.585 20.586-20.585 20.586z"></path>
		</symbol>
	
		<symbol id="arrow-right-2" viewBox="0 0 31.49 31.49">
			<path d="M21.205 5.007a1.112 1.112 0 0 0-1.587 0 1.12 1.12 0 0 0 0 1.571l8.047 8.047H1.111A1.106 1.106 0 0 0 0 15.737c0 .619.492 1.127 1.111 1.127h26.554l-8.047 8.032c-.429.444-.429 1.159 0 1.587a1.112 1.112 0 0 0 1.587 0l9.952-9.952a1.093 1.093 0 0 0 0-1.571l-9.952-9.953z"></path>
		</symbol>
	
		<symbol id="close" viewBox="0 0 60 60">
			<title>Монтажная область 2 копия 14</title><path d="M27.55 30.33L4.89 53A1.61 1.61 0 0 0 6 55.74a1.64 1.64 0 0 0 1.14-.47L30 32.44l22.83 22.83a1.64 1.64 0 0 0 1.14.47A1.61 1.61 0 0 0 55.11 53L32.45 30.33 55.13 7.65a1.61 1.61 0 1 0-2.28-2.28L30 28.22 7.15 5.37a1.61 1.61 0 1 0-2.28 2.28zm0 0"></path>
		</symbol>
	
		<symbol id="glass" viewBox="0 0 60 60">
			<title>Монтажная область 2 копия 13</title><path d="M53.36 47.55L42.69 36.88l-.18-.15a20.19 20.19 0 1 0-5.78 5.78c.06.05.09.12.15.18l10.67 10.67a4.11 4.11 0 0 0 5.81-5.81zm-27.73-8.72a13.2 13.2 0 1 1 13.2-13.2 13.2 13.2 0 0 1-13.2 13.2zm0 0" fill-rule="evenodd"></path>
		</symbol>
	
		<symbol id="map-marker" viewBox="0 0 79.536 79.536">
			<path d="M39.768 0C25.122 0 13.256 11.866 13.256 26.512c0 11.364 7.18 20.972 17.217 24.752l2.667 8.099 6.627 20.174 6.629-20.174 2.666-8.099c10.041-3.78 17.218-13.388 17.218-24.752C66.28 11.866 54.401 0 39.768 0zm-.44 34.466a7.955 7.955 0 0 1-7.954-7.954 7.955 7.955 0 1 1 7.954 7.954z" fill="#D80027"></path>
		</symbol>
	
		<symbol id="preload" viewBox="0 0 128 128">
			<rect width="100%" height="100%" fill="#FFF"></rect><g><path d="M75.4 126.63a11.43 11.43 0 0 1-2.1-22.65 40.9 40.9 0 0 0 30.5-30.6 11.4 11.4 0 1 1 22.27 4.87h.02a63.77 63.77 0 0 1-47.8 48.05v-.02a11.38 11.38 0 0 1-2.93.37z" fill="#ffcf28"></path><animateTransform attributeName="transform" type="rotate" from="0 64 64" to="360 64 64" dur="1800ms" repeatCount="indefinite"></animateTransform></g>
		</symbol>
	
		<symbol id="s-fb" viewBox="0 0 96.124 96.123">
			<path d="M72.089.02L59.624 0C45.62 0 36.57 9.285 36.57 23.656v10.907H24.037a1.96 1.96 0 0 0-1.96 1.961v15.803a1.96 1.96 0 0 0 1.96 1.96H36.57v39.876a1.96 1.96 0 0 0 1.96 1.96h16.352a1.96 1.96 0 0 0 1.96-1.96V54.287h14.654a1.96 1.96 0 0 0 1.96-1.96l.006-15.803a1.963 1.963 0 0 0-1.961-1.961H56.842v-9.246c0-4.444 1.059-6.7 6.848-6.7l8.397-.003a1.96 1.96 0 0 0 1.959-1.96V1.98A1.96 1.96 0 0 0 72.089.02z"></path>
		</symbol>
	
		<symbol id="s-insta" viewBox="0 0 60 60">
			<title>Монтажная область 2 копия 10</title><path d="M40.72 6.08H19.28a13.22 13.22 0 0 0-13.2 13.2v21.44a13.21 13.21 0 0 0 13.2 13.2h21.44a13.22 13.22 0 0 0 13.2-13.2V19.28a13.22 13.22 0 0 0-13.2-13.2zm9 34.64a9 9 0 0 1-9 9H19.28a9 9 0 0 1-9-9V19.28a9 9 0 0 1 9-9h21.44a9 9 0 0 1 9 9zm0 0"></path><path d="M30 17.68A12.33 12.33 0 1 0 42.33 30 12.33 12.33 0 0 0 30 17.68zm0 20.4A8.08 8.08 0 1 1 38.08 30 8.08 8.08 0 0 1 30 38.08zm0 0M42.84 14.08A3.11 3.11 0 1 0 45 15a3.13 3.13 0 0 0-2.2-.91zm0 0"></path>
		</symbol>
	
		<symbol id="s-ok" viewBox="0 0 60 60">
			<title>Монтажная область 2 копия 12</title><path d="M27.46 40.56c-4-.42-7.62-1.41-10.71-3.82a12.69 12.69 0 0 1-1.13-.93 3 3 0 0 1-.42-4.32 3 3 0 0 1 4.05-.91 6.09 6.09 0 0 1 .89.52 17.55 17.55 0 0 0 19.46.18 5.3 5.3 0 0 1 1.9-1 3 3 0 0 1 3.41 1.36 2.9 2.9 0 0 1-.21 3.8 15.83 15.83 0 0 1-5.7 3.68 26.66 26.66 0 0 1-6.43 1.43c.33.36.49.54.7.75 3 3 6 6 8.92 9a3 3 0 0 1 .67 3.48 3.53 3.53 0 0 1-3.31 2.06 3.25 3.25 0 0 1-2.09-1.07c-2.2-2.3-4.46-4.52-6.69-6.77-.64-.67-.95-.54-1.51 0-2.26 2.33-4.56 4.62-6.87 6.89a2.88 2.88 0 0 1-3.47.63 3.52 3.52 0 0 1-2-3.24A3.19 3.19 0 0 1 18 50.1l8.82-8.83c.19-.2.37-.41.66-.71zm0 0" fill-rule="evenodd"></path><path d="M29.9 30.32a13.08 13.08 0 1 1 13.15-12.91A13.09 13.09 0 0 1 29.9 30.32zm6.49-13.09A6.4 6.4 0 1 0 30 23.64a6.36 6.36 0 0 0 6.36-6.41zm0 0" fill-rule="evenodd"></path>
		</symbol>
	
		<symbol id="s-tw" viewBox="0 0 612 612">
			<path d="M612 116.258a250.714 250.714 0 0 1-72.088 19.772c25.929-15.527 45.777-40.155 55.184-69.411-24.322 14.379-51.169 24.82-79.775 30.48-22.907-24.437-55.49-39.658-91.63-39.658-69.334 0-125.551 56.217-125.551 125.513 0 9.828 1.109 19.427 3.251 28.606-104.326-5.24-196.835-55.223-258.75-131.174-10.823 18.51-16.98 40.078-16.98 63.101 0 43.559 22.181 81.993 55.835 104.479a125.556 125.556 0 0 1-56.867-15.756v1.568c0 60.806 43.291 111.554 100.693 123.104-10.517 2.83-21.607 4.398-33.08 4.398-8.107 0-15.947-.803-23.634-2.333 15.985 49.907 62.336 86.199 117.253 87.194-42.947 33.654-97.099 53.655-155.916 53.655-10.134 0-20.116-.612-29.944-1.721 55.567 35.681 121.536 56.485 192.438 56.485 230.948 0 357.188-191.291 357.188-357.188l-.421-16.253c24.666-17.593 46.005-39.697 62.794-64.861z"></path>
		</symbol>
	
		<symbol id="s-vk" viewBox="0 0 60 60">
			<title>Монтажная область 2 копия 11</title><path d="M51 34.38a78.73 78.73 0 0 1 5.69 5.72 16.59 16.59 0 0 1 2 2.94c.78 1.52.07 3.19-1.29 3.28h-8.46a6.53 6.53 0 0 1-5.39-2.19c-1.18-1.2-2.26-2.47-3.39-3.7a8.18 8.18 0 0 0-1.52-1.36 1.77 1.77 0 0 0-2.82.69 8.82 8.82 0 0 0-.89 4c-.09 2-.7 2.52-2.7 2.61a21.64 21.64 0 0 1-12.11-2.61A26.79 26.79 0 0 1 12 36.08 102.21 102.21 0 0 1 1.24 17c-.68-1.51-.19-2.32 1.48-2.35q4.14-.07 8.29 0a2.44 2.44 0 0 1 2.3 1.72 51.49 51.49 0 0 0 5.61 10.41 8.92 8.92 0 0 0 2.13 2.33 1.29 1.29 0 0 0 2.19-.64 7.16 7.16 0 0 0 .48-2.19 32.64 32.64 0 0 0-.13-7.65 3.19 3.19 0 0 0-2.72-2.92c-.81-.15-.69-.45-.3-.91a3 3 0 0 1 2.6-1.3h9.57c1.51.3 1.84 1 2 2.49v10.59c0 .59.3 2.33 1.35 2.72.85.27 1.41-.4 1.91-.94a32.59 32.59 0 0 0 5.39-8.28c.65-1.31 1.21-2.67 1.75-4a2 2 0 0 1 2.16-1.48h9.21a5.42 5.42 0 0 1 .81.05c1.56.27 2 .94 1.5 2.45a22.74 22.74 0 0 1-3.66 6.35c-1.54 2.12-3.18 4.18-4.7 6.31-1.4 2-1.29 2.94.45 4.64zm0 0" fill-rule="evenodd"></path>
		</symbol>
	
		<symbol id="slick-left" viewBox="0 0 59.414 59.414">
			<path fill="#FFF" d="M45.268 1.414L43.854 0 14.146 29.707l29.708 29.707L45.268 58 16.975 29.707z"></path>
		</symbol>
	
		<symbol id="slick-right" viewBox="0 0 59.414 59.414">
			<path fill="#FFF" d="M15.561 0l-1.415 1.414 28.293 28.293L14.146 58l1.415 1.414 29.707-29.707z"></path>
		</symbol>
	
</svg>
