<svg width="18" height="18" viewBox="0 0 18 18" fill="none" xmlns="http://www.w3.org/2000/svg">
<path d="M16.3859 4.91502C15.4744 5.82655 13.9965 5.82655 13.0849 4.91502C12.1734 4.00349 12.1734 2.52555 13.0849 1.61402L11.4709 0L0 11.4709L1.61406 13.085C2.52559 12.1734 4.00352 12.1734 4.91505 13.085C5.82659 13.9965 5.82659 15.4744 4.91505 16.386L6.52908 18L18 6.52908L16.3859 4.91502ZM8.98309 6.4317L8.23433 5.68294L8.9801 4.93717L9.72886 5.68593L8.98309 6.4317ZM10.4806 7.92925L9.73181 7.18049L10.4776 6.43472L11.2264 7.18348L10.4806 7.92925ZM11.9781 9.4268L11.2294 8.678L11.9751 7.93223L12.7239 8.68103L11.9781 9.4268Z" fill="#FFF"/>
</svg>
