<svg width="25" height="25" viewBox="0 0 25 25" fill="none" xmlns="http://www.w3.org/2000/svg">
<path fill-rule="evenodd" clip-rule="evenodd" d="M0 8.74994H25V25H0V8.74994ZM4.34875 11.2501H7.60963V15.0001H4.34875V11.2501ZM7.60963 17.5001H4.34875V21.2501H7.60963V17.5001ZM10.8704 11.2501H14.1312V15.0001H10.8704V11.2501ZM14.1312 17.5001H10.8704V21.2501H14.1312V17.5001ZM17.392 11.2501H20.6528V15.0001H17.392V11.2501ZM20.6528 17.5001H17.392V21.2501H20.6528V17.5001Z"/>
<path fill-rule="evenodd" clip-rule="evenodd" d="M0 6.25001H25V0H0V6.25001ZM7.6091 7.62939e-06V3.75001H5.43518V7.62939e-06H7.6091ZM20.6523 3.75001V7.62939e-06H18.4784V3.75001H20.6523Z"/>
</svg>
