<svg xmlns="http://www.w3.org/2000/svg" xmlns:xlink="http://www.w3.org/1999/xlink" width="0" height="0" style="position:absolute">
	
		<symbol id="ticket-red" viewBox="0 0 18 18">
			<path d="M16.386 4.915a2.334 2.334 0 0 1-3.301-3.301L11.47 0 0 11.47l1.614 1.615a2.334 2.334 0 1 1 3.301 3.301L6.529 18 18 6.53l-1.614-1.615zM8.983 6.432l-.749-.75.746-.745.749.749-.746.746zm1.498 1.497l-.75-.749.747-.745.748.748-.745.746zm1.497 1.498l-.749-.749.746-.746.749.749-.746.746z" fill="#DE1B1B"></path>
		</symbol>
	
		<symbol id="ticket-white" viewBox="0 0 18 18">
			<path d="M16.386 4.915a2.334 2.334 0 0 1-3.301-3.301L11.47 0 0 11.47l1.614 1.615a2.334 2.334 0 1 1 3.301 3.301L6.529 18 18 6.53l-1.614-1.615zM8.983 6.432l-.749-.75.746-.745.749.749-.746.746zm1.498 1.497l-.75-.749.747-.745.748.748-.745.746zm1.497 1.498l-.749-.749.746-.746.749.749-.746.746z" fill="#FFF"></path>
		</symbol>
	
		<symbol id="view-calendar" viewBox="0 0 25 25">
			<path clip-rule="evenodd" d="M0 8.75h25V25H0V8.75zm4.349 2.5h3.26V15H4.35v-3.75zm3.26 6.25H4.35v3.75h3.26V17.5zm3.261-6.25h3.261V15h-3.26v-3.75zm3.261 6.25h-3.26v3.75h3.26V17.5zm3.261-6.25h3.26V15h-3.26v-3.75zm3.26 6.25h-3.26v3.75h3.26V17.5zM0 6.25h25V0H0v6.25zM7.61 0v3.75H5.434V0H7.61zm13.042 3.75V0h-2.174v3.75h2.174z"></path>
		</symbol>
	
		<symbol id="view-grid" viewBox="0 0 25 25">
			<path d="M0 0h6.25v6.25H0zM9.375 0h6.25v6.25h-6.25zM18.75 0H25v6.25h-6.25zM0 9.375h6.25v6.25H0zM9.375 9.375h6.25v6.25h-6.25zM18.75 9.375H25v6.25h-6.25zM0 18.75h6.25V25H0zM9.375 18.75h6.25V25h-6.25zM18.75 18.75H25V25h-6.25z"></path>
		</symbol>
	
		<symbol id="view-list" viewBox="0 0 27 25">
			<path d="M9.529 0H27v6.25H9.529zM0 0h6.353v6.25H0zM9.529 9.375H27v6.25H9.529zM0 9.375h6.353v6.25H0zM9.529 18.75H27V25H9.529zM0 18.75h6.353V25H0z"></path>
		</symbol>
	
</svg>
