<svg width="25" height="25" viewBox="0 0 25 25" fill="none" xmlns="http://www.w3.org/2000/svg">
<path d="M9.29672 14.1146V25H0V16.4062C0 11.7535 0.513809 8.38542 1.54143 6.30208C2.89017 3.52431 5.02569 1.42361 7.94798 0L10.0674 3.64583C8.30122 4.44444 7.00064 5.64236 6.1657 7.23958C5.33076 8.80208 4.86513 11.0938 4.76879 14.1146H9.29672ZM24.2293 14.1146V25H14.9326V16.4062C14.9326 11.7535 15.4464 8.38542 16.474 6.30208C17.8227 3.52431 19.9583 1.42361 22.8805 0L25 3.64583C23.2338 4.44444 21.9332 5.64236 21.0983 7.23958C20.2633 8.80208 19.7977 11.0938 19.7013 14.1146H24.2293Z" fill="#E9E9E9"/>
</svg>
