<svg width="15" height="15" viewBox="0 0 15 15" fill="none" xmlns="http://www.w3.org/2000/svg">
<g clip-path="url(#clip0)">
<path d="M14.757 0.987818L12.8742 0.0463923C12.7699 -0.00575616 12.6492 -0.0142816 12.5387 0.0225446C12.4281 0.0594001 12.3367 0.138677 12.2846 0.242916L7.22836 10.3555H2.32178C2.32169 10.3555 2.32172 10.3555 2.32163 10.3555C1.05958 10.3555 0 11.3753 0 12.6782C0 13.9584 1.04156 15 2.32178 15H7.97065C8.13712 15 8.28929 14.9059 8.3637 14.7571L14.9535 1.57739C15.0621 1.3603 14.9741 1.09633 14.757 0.987818Z" fill="#636363"/>
<path d="M4.14258 7.46932C5.93306 7.46932 7.40622 6.70528 7.40622 5.61775V5.00586C7.24767 5.13685 7.06887 5.25781 6.87067 5.36727C6.13793 5.77183 5.16908 5.99469 4.14258 5.99469C3.11766 5.99469 2.14972 5.77241 1.41712 5.36882C1.21787 5.25904 1.03816 5.13767 0.878906 5.00612V5.61775C0.878906 6.70836 2.3572 7.46932 4.14258 7.46932Z" fill="#636363"/>
<path d="M4.14258 5.1152C5.93306 5.1152 7.40622 4.3512 7.40622 3.26367C7.40622 2.17307 5.92793 1.41211 4.14258 1.41211C2.3521 1.41208 0.878906 2.17611 0.878906 3.26364C0.878906 4.35428 2.3572 5.1152 4.14258 5.1152Z" fill="#636363"/>
</g>
<defs>
<clipPath id="clip0">
<rect width="15" height="15" fill="white"/>
</clipPath>
</defs>
</svg>
