<svg width="15" height="15" viewBox="0 0 15 15" fill="none" xmlns="http://www.w3.org/2000/svg">
<g clip-path="url(#clip0)">
<path d="M4.30589 10.3496C3.97882 10.3496 3.71289 10.6155 3.71289 10.9426C3.71289 11.2694 3.97882 11.5353 4.30589 11.5353C4.63296 11.5353 4.89889 11.2694 4.89889 10.9426C4.89889 10.6155 4.63296 10.3496 4.30589 10.3496Z" fill="#636363"/>
<path d="M14.3672 7.5579C14.7084 7.5579 14.9786 7.28085 14.9786 6.94647V6.45323C14.9786 6.11591 14.7042 5.84179 14.3672 5.84179H13.0595C12.8009 5.84179 12.5914 5.63203 12.5914 5.37371C12.5914 5.11509 12.8009 4.90563 13.0595 4.90563H13.608C12.1251 0.0939426 5.77526 -2.28787 0.479492 3.06489C0.198643 3.34867 0.0324732 3.71611 0.00409572 4.10989H2.71488C2.9735 4.10989 3.18296 4.31935 3.18296 4.57797C3.18296 4.83629 2.9735 5.04605 2.71488 5.04605H0V7.5579H2.71488C2.9735 7.5579 3.18296 7.76766 3.18296 8.02598C3.18296 8.2846 2.9735 8.49407 2.71488 8.49407H0V9.08707C0 11.608 2.05079 13.6588 4.5717 13.6588C5.92274 13.6588 7.02124 12.5592 7.02124 11.2089V8.02598C7.02124 7.76766 7.23071 7.5579 7.48932 7.5579H14.3672ZM4.30636 12.4728C3.46323 12.4728 2.77719 11.787 2.77719 10.9439C2.77719 10.1008 3.46323 9.41473 4.30636 9.41473C5.14949 9.41473 5.83553 10.1008 5.83553 10.9439C5.83553 11.787 5.14949 12.4728 4.30636 12.4728Z" fill="#636363"/>
<path d="M14.5323 10.0691H12.8785V8.49316H11.9423V10.0691H7.95778V11.0053H11.9423V13.3858L10.6194 12.0629C10.5317 11.9751 10.4126 11.926 10.2885 11.926C7.69539 11.926 7.88274 11.9184 7.87762 11.9415C7.80536 12.2685 7.68542 12.5781 7.52539 12.8621H10.0946C12.2769 15.0442 12.1046 14.8854 12.1975 14.9325C12.3413 15.006 12.2476 14.984 14.5323 14.984C14.7909 14.984 15.0004 14.7746 15.0004 14.516V10.5373C15.0004 10.2786 14.7909 10.0691 14.5323 10.0691ZM14.0642 14.0478H12.8785V11.0053H14.0642V14.0478Z" fill="#636363"/>
</g>
<defs>
<clipPath id="clip0">
<rect width="15" height="15" fill="white"/>
</clipPath>
</defs>
</svg>
