<svg width="10" height="8" viewBox="0 0 10 8" fill="none" xmlns="http://www.w3.org/2000/svg">
<path d="M8.33701 0.709834C7.42153 0.2521 6.21073 0 4.92767 0C3.64461 0 2.4338 0.2521 1.51832 0.709834C0.539214 1.19939 0 1.87355 0 2.6082C0 3.34284 0.539214 4.01703 1.51832 4.50656C2.4338 4.9643 3.64461 5.2164 4.92767 5.2164C6.21073 5.2164 7.42153 4.9643 8.33701 4.50656C9.31612 4.01703 9.85533 3.34284 9.85533 2.6082C9.85533 1.87355 9.31612 1.19939 8.33701 0.709834Z" fill="white"/>
<path d="M8.59527 5.02286C7.60116 5.51991 6.29864 5.79365 4.92767 5.79365C3.5567 5.79365 2.25418 5.5199 1.26006 5.02286C0.73197 4.75882 0.308557 4.44226 0 4.08105V5.39139C0 6.126 0.539214 6.80018 1.51832 7.28976C2.4338 7.74747 3.64461 7.99959 4.92767 7.99959C6.21073 7.99959 7.42153 7.74747 8.33701 7.28976C9.31612 6.80018 9.85533 6.126 9.85533 5.39139V4.08105C9.54678 4.44226 9.12336 4.75882 8.59527 5.02286Z" fill="white"/>
</svg>
