<svg width="8" height="8" viewBox="0 0 8 8" fill="none" xmlns="http://www.w3.org/2000/svg">
<path d="M3.51109 4.43224C3.25828 3.94229 2.64808 3.75578 2.14093 4.02768C1.63595 4.29839 1.43304 4.92162 1.68865 5.41698C1.94058 5.90524 2.54998 6.09432 3.05881 5.82154C3.56378 5.55083 3.76669 4.92759 3.51109 4.43224Z" fill="white"/>
<path d="M7.50044 1.90386L6.59294 0.184205C6.53653 0.0772778 6.40412 0.0363259 6.29718 0.0926804L3.78827 1.4152C3.68133 1.47157 3.6403 1.60393 3.69658 1.71092L3.92772 2.15019L3.1519 2.55803L2.92114 2.1195C2.86483 2.01253 2.73222 1.97127 2.62518 2.0278L1.41516 2.66618C0.127577 3.34489 -0.339523 4.9619 0.408853 6.22744L0.244403 6.39181C-0.0112359 6.64735 -0.0113089 7.06103 0.244403 7.31661C0.4994 7.57149 0.914292 7.57151 1.1693 7.31661L1.33974 7.14625C2.09785 7.57867 3.05804 7.60856 3.87663 7.14036C4.93967 6.53222 5.37866 5.29294 5.0574 4.20286C4.94419 3.81875 5.1181 3.39567 5.49379 3.20174L7.40827 2.20012C7.51569 2.14391 7.55701 2.01105 7.50044 1.90386ZM0.859718 7.00682C0.775406 7.09106 0.638286 7.09106 0.554003 7.00682C0.469631 6.92247 0.469602 6.78597 0.554003 6.7016L0.666653 6.58901C0.761346 6.70003 0.864317 6.80129 0.974004 6.89259L0.859718 7.00682ZM3.26617 6.20732C2.54351 6.59472 1.66502 6.32514 1.2999 5.61758C0.935286 4.91095 1.21995 4.02443 1.93447 3.64139C2.65741 3.25383 3.53565 3.5236 3.90074 4.23113V4.23114C4.26533 4.93777 3.98066 5.82427 3.26617 6.20732Z" fill="white"/>
<path d="M2.63022 1.09939C2.68657 1.20646 2.819 1.24751 2.92597 1.1912C3.033 1.13489 3.0741 1.00244 3.01779 0.895414L2.69406 0.280143C2.63773 0.173113 2.50533 0.132 2.3983 0.188326C2.29127 0.244636 2.25017 0.377084 2.30648 0.484114L2.63022 1.09939Z" fill="white"/>
<path d="M1.6706 1.65668C2.3899 1.8129 2.34536 1.80529 2.37837 1.80529C2.47916 1.80529 2.56987 1.73526 2.59215 1.63274C2.61782 1.51454 2.54282 1.39792 2.42464 1.37225L1.76355 1.22868C1.64534 1.20297 1.52876 1.27803 1.50308 1.39621C1.47741 1.51439 1.55243 1.63101 1.6706 1.65668Z" fill="white"/>
<path d="M3.4837 1.16458C3.59552 1.21041 3.72349 1.15691 3.76933 1.04492L4.02954 0.409472C4.07537 0.297551 4.0218 0.169659 3.90988 0.12383C3.79793 0.0779585 3.67008 0.131568 3.62425 0.243489L3.36404 0.878937C3.31822 0.990857 3.3718 1.11875 3.4837 1.16458Z" fill="white"/>
</svg>
