<svg width="13" height="13" viewBox="0 0 13 13" fill="none" xmlns="http://www.w3.org/2000/svg">
<path d="M6.01793 7.62077C5.57827 6.76869 4.51704 6.44432 3.63505 6.9172C2.75681 7.38799 2.40393 8.47187 2.84847 9.33337C3.28661 10.1825 4.34644 10.5113 5.23136 10.0369C6.10957 9.56616 6.46245 8.48225 6.01793 7.62077Z" fill="#3F3F3F"/>
<path d="M12.9559 3.22415L11.3777 0.233443C11.2796 0.0474821 11.0493 -0.0237386 10.8633 0.0742692L6.49998 2.3743C6.31399 2.47234 6.24264 2.70253 6.34052 2.88859L6.74251 3.65254L5.39325 4.36183L4.99193 3.59917C4.894 3.41314 4.66337 3.34138 4.47721 3.43969L2.37283 4.54993C0.133558 5.73028 -0.678789 8.54247 0.622734 10.7434L0.336734 11.0293C-0.107856 11.4737 -0.107983 12.1931 0.336734 12.6376C0.780207 13.0809 1.50176 13.0809 1.94526 12.6376L2.24167 12.3413C3.56012 13.0934 5.23001 13.1454 6.65364 12.3311C8.50241 11.2735 9.26588 9.11821 8.70716 7.22242C8.51028 6.55439 8.81273 5.81859 9.46611 5.48133L12.7956 3.73938C12.9825 3.64163 13.0543 3.41057 12.9559 3.22415ZM1.40685 12.0989C1.26022 12.2454 1.02175 12.2454 0.875167 12.0989C0.728435 11.9522 0.728384 11.7148 0.875167 11.568L1.07108 11.3722C1.23577 11.5653 1.41485 11.7414 1.60561 11.9002L1.40685 12.0989ZM5.59198 10.7084C4.33517 11.3822 2.80737 10.9133 2.17237 9.68279C1.53827 8.45386 2.03334 6.91209 3.27598 6.24594C4.53327 5.57192 6.06064 6.04109 6.69559 7.27157V7.2716C7.32964 8.5005 6.83458 10.0422 5.59198 10.7084Z" fill="#3F3F3F"/>
<path d="M4.48971 1.82464C4.58772 2.01085 4.81804 2.08225 5.00407 1.98432C5.19021 1.88639 5.26169 1.65604 5.16375 1.4699L4.60074 0.399866C4.50278 0.213727 4.27252 0.142227 4.08638 0.240184C3.90024 0.338116 3.82876 0.56846 3.9267 0.754598L4.48971 1.82464Z" fill="#3F3F3F"/>
<path d="M2.81571 2.79512C4.06668 3.0668 3.98921 3.05357 4.04662 3.05357C4.22192 3.05357 4.37967 2.93177 4.41842 2.75348C4.46305 2.54792 4.33262 2.3451 4.12708 2.30046L2.97737 2.05077C2.77178 2.00606 2.56904 2.13659 2.52438 2.34213C2.47974 2.54766 2.6102 2.75048 2.81571 2.79512Z" fill="#3F3F3F"/>
<path d="M5.96903 1.93814C6.16349 2.01784 6.38604 1.92481 6.46577 1.73004L6.91831 0.624914C6.99801 0.430269 6.90485 0.207847 6.71021 0.128146C6.51551 0.0483686 6.29316 0.141603 6.21346 0.336248L5.76092 1.44137C5.68122 1.63602 5.77441 1.85844 5.96903 1.93814Z" fill="#3F3F3F"/>
</svg>
