<svg width="14" height="17" viewBox="0 0 14 17" fill="none" xmlns="http://www.w3.org/2000/svg">
<path d="M12.396 4.83015L13.4713 3.68827C13.7321 3.41201 13.7321 2.96364 13.4713 2.68673C13.2107 2.40969 12.7893 2.40969 12.5287 2.68673L11.4534 3.82861C10.4041 2.90696 9.09668 2.30489 7.66663 2.16119V1.41671H9C9.36865 1.41671 9.66663 1.09933 9.66663 0.70829C9.66663 0.317375 9.36865 0 9 0H5C4.63135 0 4.33337 0.317375 4.33337 0.70829C4.33337 1.09933 4.63135 1.41671 5 1.41671H6.33337V2.16119C2.78528 2.5189 0 5.70069 0 9.5625C0 13.6637 3.14001 17 7 17C10.86 17 14 13.6637 14 9.5625C14 7.76616 13.3973 6.11716 12.396 4.83015ZM9.40002 12.9624C9.28003 13.0582 9.13928 13.1042 9.00061 13.1042C8.79797 13.1042 8.59802 13.0064 8.46667 12.8208L6.46667 9.98753C6.38 9.86496 6.33337 9.71619 6.33337 9.5625V5.66671C6.33337 5.27502 6.63196 4.95829 7 4.95829C7.36804 4.95829 7.66663 5.27502 7.66663 5.66671V9.32658L9.53333 11.9709C9.75403 12.2839 9.6947 12.7281 9.40002 12.9624Z" fill="#3F3F3F"/>
</svg>
