<svg width="14" height="16" viewBox="0 0 14 16" fill="none" xmlns="http://www.w3.org/2000/svg">
<path d="M12.396 4.54602L13.4713 3.47131C13.7321 3.2113 13.7321 2.78931 13.4713 2.52869C13.2107 2.26794 12.7893 2.26794 12.5287 2.52869L11.4534 3.60339C10.4041 2.73596 9.09668 2.16931 7.66663 2.03406V1.33337H9C9.36865 1.33337 9.66663 1.03467 9.66663 0.666626C9.66663 0.298706 9.36865 0 9 0H5C4.63135 0 4.33337 0.298706 4.33337 0.666626C4.33337 1.03467 4.63135 1.33337 5 1.33337H6.33337V2.03406C2.78528 2.37073 0 5.36536 0 9C0 12.86 3.14001 16 7 16C10.86 16 14 12.86 14 9C14 7.30933 13.3973 5.75732 12.396 4.54602ZM9.40002 12.2C9.28003 12.29 9.13928 12.3334 9.00061 12.3334C8.79797 12.3334 8.59802 12.2413 8.46667 12.0667L6.46667 9.40002C6.38 9.28467 6.33337 9.14465 6.33337 9V5.33337C6.33337 4.96472 6.63196 4.66663 7 4.66663C7.36804 4.66663 7.66663 4.96472 7.66663 5.33337V8.77795L9.53333 11.2667C9.75403 11.5613 9.6947 11.9794 9.40002 12.2Z" fill="#3F3F3F"/>
</svg>
