<svg width="18" height="17" viewBox="0 0 18 17" fill="none" xmlns="http://www.w3.org/2000/svg">
<g clip-path="url(#clip0)">
<path d="M16.61 10.3482C16.3639 10.3482 16.1644 10.5476 16.1644 10.7937V14.7501C16.1636 15.4879 15.5657 16.0859 14.8277 16.0868H2.3255C1.58753 16.0859 0.989666 15.4879 0.988795 14.7501V3.13898C0.989666 2.40101 1.58753 1.80314 2.3255 1.80227H6.28167C6.52778 1.80227 6.72724 1.60281 6.72724 1.3567C6.72724 1.11059 6.52778 0.911133 6.28167 0.911133H2.3255C1.09566 0.912525 0.0990487 1.90914 0.0976562 3.13898V14.7501C0.0990487 15.9799 1.09566 16.9765 2.3255 16.9779H14.8277C16.0576 16.9765 17.0542 15.9799 17.0556 14.7501V10.7939C17.0556 10.5478 16.8561 10.3482 16.61 10.3482Z" fill="black"/>
<path d="M7.06641 8.00308L13.5722 1.49707L15.6704 3.59525L9.16459 10.1013L7.06641 8.00308Z" fill="black"/>
<path d="M6.00391 11.1625L8.32261 10.5202L6.64615 8.84375L6.00391 11.1625Z" fill="black"/>
<path d="M16.2471 0.394052C15.8118 -0.0402047 15.1071 -0.0402047 14.6718 0.394052L14.1992 0.866599L16.2974 2.96478L16.77 2.49223C17.2044 2.05693 17.2044 1.3522 16.77 0.9169L16.2471 0.394052Z" fill="black"/>
</g>
<defs>
<clipPath id="clip0">
<rect width="17" height="17" fill="white" transform="translate(0.0976562)"/>
</clipPath>
</defs>
</svg>
