<svg width="28" height="30" viewBox="0 0 28 30" fill="none" xmlns="http://www.w3.org/2000/svg">
<path d="M27.1836 19.4531C27.1836 18.4863 26.3926 17.6953 25.4258 17.6953C26.3926 17.6953 27.1836 16.9043 27.1836 15.9375C27.1836 14.9707 26.3926 14.1797 25.4258 14.1797H18.2188C19.291 10.9628 19.2734 9.9375 19.2734 7.96875C19.2734 6.50619 18.0743 5.33203 16.6367 5.33203H16.1094C15.7754 5.33203 15.3535 5.59576 15.2656 6C14.396 9.38561 13.0364 13.2705 9.60547 14.0575V26.7759L12.6464 27.7851C13.5429 28.0839 14.4746 28.2421 15.4238 28.2421H23.668C24.6388 28.2422 25.4258 27.4551 25.4258 26.4844C25.4258 25.5135 24.6388 24.7266 23.668 24.7266H25.4258C26.3926 24.7266 27.1836 23.9355 27.1836 22.9687C27.1836 22.002 26.3926 21.2109 25.4258 21.2109C26.3926 21.2109 27.1836 20.4199 27.1836 19.4531Z" fill="white"/>
<path d="M5.21094 12.4219H1.69531C1.20951 12.4219 0.816406 12.815 0.816406 13.3008V29.1211C0.816406 29.6069 1.20951 30 1.69531 30H5.21094C6.66488 30 7.84766 28.8172 7.84766 27.3633V15.0586C7.84766 13.6046 6.66488 12.4219 5.21094 12.4219ZM5.21094 26.4844C4.72555 26.4844 4.33203 26.0909 4.33203 25.6055C4.33203 25.12 4.72555 24.7266 5.21094 24.7266C5.69633 24.7266 6.08984 25.12 6.08984 25.6055C6.08984 26.0909 5.69633 26.4844 5.21094 26.4844Z" fill="white"/>
<path d="M12.9072 3.87531L11.6644 2.63248C11.3211 2.28917 10.7648 2.28917 10.4215 2.63248C10.0782 2.97578 10.0782 3.53201 10.4215 3.87531L11.6644 5.11814C12.0077 5.46144 12.5638 5.46144 12.9072 5.11814C13.2505 4.77484 13.2505 4.21861 12.9072 3.87531Z" fill="white"/>
<path d="M22.8506 2.63248C22.5073 2.28917 21.951 2.28917 21.6077 2.63248L20.3649 3.87531C20.0216 4.21861 20.0216 4.77484 20.3649 5.11814C20.7082 5.46144 21.2644 5.46144 21.6077 5.11814L22.8506 3.87531C23.1939 3.53201 23.1939 2.97578 22.8506 2.63248Z" fill="white"/>
<path d="M16.6367 0C16.1445 0 15.7578 0.38666 15.7578 0.878906V2.69531C15.7578 3.18756 16.1445 3.57422 16.6367 3.57422C17.129 3.57422 17.5156 3.18756 17.5156 2.69531V0.878906C17.5156 0.38666 17.129 0 16.6367 0Z" fill="white"/>
</svg>
