<svg width="26" height="26" viewBox="0 0 26 26" fill="none" xmlns="http://www.w3.org/2000/svg">
<path d="M24.551 2.53441H21.3053C21.3171 2.17492 21.3237 1.81331 21.3237 1.44996C21.3237 1.04069 20.9918 0.708984 20.5827 0.708984H4.70943C4.30016 0.708984 3.96846 1.04069 3.96846 1.44996C3.96846 1.81331 3.97483 2.17492 3.9866 2.53441H0.740975C0.331702 2.53441 0 2.86611 0 3.27538C0 6.59549 0.867751 9.72784 2.44329 12.0957C4.00068 14.4365 6.07522 15.7791 8.31609 15.9098C8.82416 16.4626 9.36137 16.9134 9.92076 17.2572V20.5505H8.6777C7.17491 20.5505 5.9525 21.7731 5.9525 23.2757V24.5188H5.89982C5.49054 24.5188 5.15884 24.8507 5.15884 25.2598C5.15884 25.669 5.49054 26.0007 5.89982 26.0007H19.3921C19.8014 26.0007 20.1331 25.669 20.1331 25.2598C20.1331 24.8507 19.8014 24.5188 19.3921 24.5188H19.3394V23.2757C19.3394 21.7731 18.1168 20.5505 16.6142 20.5505H15.3712V17.2572C15.9306 16.9134 16.4676 16.4626 16.9757 15.9098C19.2167 15.7791 21.2911 14.4365 22.8486 12.0957C24.4242 9.72784 25.2919 6.59549 25.2919 3.27538C25.2919 2.86611 24.96 2.53441 24.551 2.53441ZM3.67709 11.2748C2.37749 9.32166 1.61394 6.76742 1.49758 4.01636H4.06938C4.33663 7.39821 5.13048 10.524 6.37122 13.0055C6.56882 13.4007 6.77548 13.7739 6.98986 14.1256C5.75741 13.6602 4.61681 12.6873 3.67709 11.2748ZM21.6148 11.2748C20.6751 12.6873 19.5345 13.6602 18.3021 14.1256C18.5166 13.7739 18.7231 13.4007 18.9207 13.0055C20.1615 10.524 20.9551 7.39821 21.2226 4.01636H23.7944C23.678 6.76742 22.9144 9.32166 21.6148 11.2748Z" fill="#FFB023"/>
</svg>
