<svg width="16" height="17" viewBox="0 0 16 17" fill="none" xmlns="http://www.w3.org/2000/svg">
<g clip-path="url(#clip0)">
<path d="M7.40698 9.96683C6.86586 8.85256 5.55974 8.42839 4.4742 9.04677C3.3933 9.66242 2.95899 11.0798 3.50611 12.2064C4.04536 13.3168 5.34977 13.7468 6.43889 13.1264C7.51977 12.5108 7.95408 11.0934 7.40698 9.96683Z" fill="#2F2F2F"/>
<path d="M15.9458 4.21665L14.0033 0.305722C13.8825 0.0625427 13.5991 -0.030592 13.3702 0.097572L7.99997 3.10531C7.77107 3.23351 7.68325 3.53453 7.80372 3.77784L8.29847 4.77686L6.63785 5.70438L6.14391 4.70706C6.02338 4.46378 5.73954 4.36995 5.51041 4.49851L2.92041 5.95035C0.164379 7.4939 -0.835433 11.1714 0.766442 14.0495L0.414442 14.4234C-0.132746 15.0045 -0.132902 15.9453 0.414442 16.5266C0.960254 17.1062 1.84832 17.1063 2.39416 16.5266L2.75897 16.1391C4.38169 17.1226 6.43694 17.1905 8.1891 16.1257C10.4645 14.7427 11.4042 11.9243 10.7165 9.44515C10.4742 8.57157 10.8464 7.60938 11.6506 7.16834L15.7485 4.89041C15.9784 4.76258 16.0668 4.46043 15.9458 4.21665ZM1.7315 15.822C1.55104 16.0136 1.25754 16.0136 1.07713 15.822C0.896536 15.6302 0.896473 15.3198 1.07713 15.1279L1.31825 14.8718C1.52094 15.1243 1.74135 15.3546 1.97613 15.5623L1.7315 15.822ZM6.88244 14.0038C5.3356 14.8848 3.45522 14.2717 2.67369 12.6626C1.89325 11.0555 2.50257 9.03934 4.03197 8.16822C5.57941 7.28681 7.45925 7.90034 8.24072 9.50943V9.50946C9.0211 11.1165 8.41179 13.1326 6.88244 14.0038Z" fill="#2F2F2F"/>
<path d="M5.52234 2.38719C5.64297 2.6307 5.92643 2.72407 6.1554 2.596C6.3845 2.46794 6.47247 2.16672 6.35193 1.92331L5.659 0.524028C5.53843 0.280616 5.25503 0.187116 5.02593 0.315214C4.79684 0.443278 4.70887 0.744497 4.8294 0.987909L5.52234 2.38719Z" fill="#2F2F2F"/>
<path d="M3.46504 3.65478C5.00469 4.01005 4.90935 3.99276 4.98001 3.99276C5.19575 3.99276 5.38991 3.83348 5.4376 3.60033C5.49254 3.33152 5.332 3.06629 5.07904 3.00792L3.66401 2.6814C3.41098 2.62293 3.16145 2.79363 3.10648 3.0624C3.05154 3.33118 3.2121 3.59641 3.46504 3.65478Z" fill="#2F2F2F"/>
<path d="M7.34589 2.53509C7.58524 2.63932 7.85914 2.51766 7.95727 2.26296L8.51424 0.817796C8.61233 0.56326 8.49768 0.272401 8.25811 0.168176C8.01849 0.0638523 7.74483 0.185774 7.64674 0.440309L7.08977 1.88548C6.99167 2.14001 7.10636 2.43087 7.34589 2.53509Z" fill="#2F2F2F"/>
</g>
<defs>
<clipPath id="clip0">
<rect width="16" height="17" fill="white"/>
</clipPath>
</defs>
</svg>
