<svg width="22" height="18" viewBox="0 0 22 18" fill="none" xmlns="http://www.w3.org/2000/svg">
<path d="M21.6957 2.92919C20.9309 3.26323 20.1104 3.48758 19.2493 3.58729C20.1306 3.06879 20.8043 2.24615 21.1183 1.26897C20.2978 1.74759 19.3861 2.09658 18.4136 2.28604C17.6437 1.47338 16.5395 0.964844 15.3137 0.964844C12.9636 0.964844 11.0591 2.83945 11.0591 5.15278C11.0591 5.48184 11.0945 5.80092 11.1705 6.11003C7.63004 5.93553 4.49477 4.26534 2.39276 1.73263C2.02808 2.35085 1.81535 3.06879 1.81535 3.83657C1.81535 5.29238 2.56497 6.57369 3.70968 7.32154C3.0107 7.3016 2.35731 7.11214 1.77989 6.79805C1.77989 6.81799 1.77989 6.83295 1.77989 6.85289C1.77989 8.88205 3.24876 10.5772 5.19374 10.9611C4.83412 11.0558 4.45931 11.1056 4.07436 11.1056C3.80085 11.1056 3.5324 11.0807 3.27408 11.0309C3.81605 12.6961 5.38622 13.9076 7.25016 13.9425C5.79142 15.0642 3.95787 15.7373 1.96223 15.7373C1.61781 15.7373 1.27845 15.7174 0.949219 15.6775C2.83342 16.8641 5.07218 17.5621 7.47302 17.5621C15.3036 17.5621 19.5836 11.1804 19.5836 5.64138C19.5836 5.46189 19.5785 5.27743 19.5735 5.09794C20.4041 4.50964 21.1234 3.77176 21.6957 2.92919Z" fill="black"/>
</svg>
