<svg width="15" height="12" viewBox="0 0 15 12" fill="none" xmlns="http://www.w3.org/2000/svg">
<path d="M12.6891 1.06475C11.2957 0.37815 9.45284 0 7.5 0C5.54716 0 3.7043 0.37815 2.31091 1.06475C0.820693 1.79908 0 2.81033 0 3.9123C0 5.01427 0.820693 6.02554 2.31091 6.75984C3.7043 7.44644 5.54716 7.82459 7.5 7.82459C9.45284 7.82459 11.2957 7.44644 12.6891 6.75984C14.1793 6.02554 15 5.01427 15 3.9123C15 2.81033 14.1793 1.79908 12.6891 1.06475Z" fill="#3F3F3F"/>
<path d="M13.0822 7.53575C11.5691 8.28134 9.58664 8.69194 7.5 8.69194C5.41336 8.69194 3.4309 8.28131 1.91783 7.53575C1.11407 7.1397 0.469629 6.66485 0 6.12305V8.08855C0 9.19046 0.820693 10.2017 2.31091 10.9361C3.7043 11.6227 5.54716 12.0009 7.5 12.0009C9.45284 12.0009 11.2957 11.6227 12.6891 10.9361C14.1793 10.2017 15 9.19046 15 8.08855V6.12305C14.5304 6.66485 13.8859 7.1397 13.0822 7.53575Z" fill="#3F3F3F"/>
</svg>
