<svg width="26" height="26" viewBox="0 0 26 26" fill="none" xmlns="http://www.w3.org/2000/svg">
<path d="M24.4258 16.8594C24.4258 16.0215 23.7402 15.3359 22.9023 15.3359C23.7402 15.3359 24.4258 14.6504 24.4258 13.8125C24.4258 12.9746 23.7402 12.2891 22.9023 12.2891H16.6563C17.5855 9.50112 17.5703 8.6125 17.5703 6.90625C17.5703 5.6387 16.531 4.62109 15.2852 4.62109H14.8281C14.5387 4.62109 14.173 4.84966 14.0968 5.2C13.3432 8.13419 12.1649 11.5011 9.19141 12.1831V23.2058L11.8269 24.0804C12.6039 24.3393 13.4113 24.4765 14.234 24.4765H21.3789C22.2203 24.4766 22.9023 23.7944 22.9023 22.9531C22.9023 22.1117 22.2203 21.4297 21.3789 21.4297H22.9023C23.7402 21.4297 24.4258 20.7441 24.4258 19.9062C24.4258 19.0684 23.7402 18.3828 22.9023 18.3828C23.7402 18.3828 24.4258 17.6973 24.4258 16.8594Z" fill="white"/>
<path d="M5.38281 10.7656H2.33594C1.91491 10.7656 1.57422 11.1063 1.57422 11.5273V25.2383C1.57422 25.6593 1.91491 26 2.33594 26H5.38281C6.6429 26 7.66797 24.9749 7.66797 23.7148V13.0508C7.66797 11.7907 6.6429 10.7656 5.38281 10.7656ZM5.38281 22.9531C4.96214 22.9531 4.62109 22.6121 4.62109 22.1914C4.62109 21.7706 4.96214 21.4297 5.38281 21.4297C5.80348 21.4297 6.14453 21.7706 6.14453 22.1914C6.14453 22.6121 5.80348 22.9531 5.38281 22.9531Z" fill="white"/>
<path d="M12.0541 3.35886L10.977 2.28174C10.6795 1.98421 10.1974 1.98421 9.8999 2.28174C9.60238 2.57927 9.60238 3.06133 9.8999 3.35886L10.977 4.43598C11.2746 4.73351 11.7566 4.73351 12.0541 4.43598C12.3517 4.13845 12.3517 3.65639 12.0541 3.35886Z" fill="white"/>
<path d="M20.6704 2.28174C20.3728 1.98421 19.8908 1.98421 19.5932 2.28174L18.5161 3.35886C18.2186 3.65639 18.2186 4.13845 18.5161 4.43598C18.8136 4.73351 19.2957 4.73351 19.5932 4.43598L20.6704 3.35886C20.9679 3.06133 20.9679 2.57927 20.6704 2.28174Z" fill="white"/>
<path d="M15.2852 0C14.8585 0 14.5234 0.335105 14.5234 0.761719V2.33594C14.5234 2.76255 14.8585 3.09766 15.2852 3.09766C15.7118 3.09766 16.0469 2.76255 16.0469 2.33594V0.761719C16.0469 0.335105 15.7118 0 15.2852 0Z" fill="white"/>
</svg>
