<svg width="13" height="12" viewBox="0 0 13 12" fill="none" xmlns="http://www.w3.org/2000/svg">
<path opacity="0.4" d="M11.59 1.00352H1.68038C1.25 1.00352 0.9 1.35351 0.9 1.7839V8.6258C0.9 9.05619 1.25 9.40619 1.68038 9.40619H4.97603V9.80125C4.97603 10.1999 4.65157 10.5243 4.25296 10.5243H3.5046C3.3059 10.5243 3.14479 10.6854 3.14479 10.8841C3.14479 11.0829 3.3059 11.2439 3.5046 11.2439H9.76575C9.96445 11.2439 10.1256 11.0829 10.1256 10.8841C10.1256 10.6854 9.96445 10.5243 9.76575 10.5243H9.01737C8.61877 10.5243 8.2943 10.1999 8.2943 9.80125V9.40621H11.5899C12.0203 9.40621 12.3704 9.05622 12.3704 8.62583V1.7839C12.3704 1.35351 12.0204 1.00352 11.59 1.00352ZM7.7697 10.5244H5.50072C5.62451 10.3117 5.6957 10.0647 5.6957 9.80129V9.40623H7.57472V9.80129C7.57472 10.0647 7.64591 10.3117 7.7697 10.5244ZM11.6508 8.6866H1.61961L1.61963 1.7839C1.61963 1.75048 1.64698 1.72312 1.68041 1.72312H11.59C11.6234 1.72312 11.6508 1.75049 11.6508 1.7839L11.6508 8.6866Z" fill="black" stroke="black" stroke-width="0.2"/>
</svg>
