<svg id="Слой_1" data-name="Слой 1" xmlns="http://www.w3.org/2000/svg" viewBox="0 0 99.38 131"><defs><style>.cls-1{fill:#fff;}.cls-2{fill:#21b14c;}.cls-3{fill:#f02729;}</style></defs><title>logo-2</title><path class="cls-1" d="M49.69.24H0v69c0,39.46,49.69,62,49.69,62s49.69-22.56,49.69-62V.24Z" transform="translate(0 -0.24)"/><path class="cls-2" d="M6.2,33.2h87V5.2H6.2Zm11.54-9.15a4.46,4.46,0,0,1-3,.81h-4.2V15.74a1.22,1.22,0,0,1,.29-.88,1.28,1.28,0,0,1,.92-.28h6.41a2.45,2.45,0,0,1-.38,1.9H12.65v1.88l.79-.06h.93a8.78,8.78,0,0,1,1.77.17A3.68,3.68,0,0,1,17.5,19a2.63,2.63,0,0,1,.87,1,3.36,3.36,0,0,1,.3,1.5,3.27,3.27,0,0,1-.93,2.57M27,18.78s.32.13.32,1-.3.92-.3.92H22.62V23h4.64a3,3,0,0,1,.37,1.9H20.46V15.74a1,1,0,0,1,.92-1.17.94.94,0,0,1,.29,0h6a2,2,0,0,1-.37,1.9H22.62v2.26ZM38.09,24.9H35.94V16.48h-.6a3.46,3.46,0,0,0-1.11.15,2.11,2.11,0,0,0-.8.48,2.91,2.91,0,0,0-.53.81,22.8,22.8,0,0,0-.66,2.28c-.08.41-1.1,4.66-1.1,4.66H29c.22-.88,1.21-4.8,1.28-5.14a15.66,15.66,0,0,1,.84-2.86,4,4,0,0,1,1-1.31,3.78,3.78,0,0,1,1.4-.74,6.52,6.52,0,0,1,1.81-.23h1.62a2.31,2.31,0,0,1,.74.09.85.85,0,0,1,.39.31Zm10.24,0c-.09-.22-.19-.51-.34-.88l-.51-1.31H42.63c-.2.51-.36,1-.5,1.31s-.25.65-.35.88H39.6c.22-.59.46-1.2.71-1.83s.5-1.25.76-1.86l.74-1.79c.24-.58.47-1.11.68-1.59L43,16.55c.16-.37.29-.65.39-.85a2.21,2.21,0,0,1,.73-1,2.1,2.1,0,0,1,2.31.19c.18.31.39.73.64,1.25s.5,1.1.77,1.74.55,1.29.83,2,.54,1.35.78,2,.48,1.23.68,1.76l.48,1.27Zm11.19-5.48a2.9,2.9,0,0,1-.64,1.08,3.27,3.27,0,0,1-1.26.8,5.65,5.65,0,0,1-2,.3,8.34,8.34,0,0,1-1,0l-.53-.09v3.4H52V15.74a1,1,0,0,1,.8-1.17,1.08,1.08,0,0,1,.4,0H56.7a6,6,0,0,1,.61.12A2.9,2.9,0,0,1,59.12,16a3.38,3.38,0,0,1,.42,1,4.11,4.11,0,0,1,.15,1.1,4.28,4.28,0,0,1-.2,1.28m7.89.73c-.94,1.7-1.88,3.33-2.85,4.88h-2.4c.31-.47.64-1,1-1.56a19.41,19.41,0,0,0,1-1.8c-.34-.54-.66-1.06-1-1.57l-.86-1.41-.7-1.19-.52-.89C61,16.4,60.22,15,60.22,15a2.72,2.72,0,0,1,2.37-.29c.13.26.3.58.51.94l.78,1.21c.24.42.49.85.76,1.29l.75,1.28c.39-.72.74-1.4,1.08-2.06s1-2.1,1.31-2.64A2.82,2.82,0,0,1,70,15c-.78,1.71-1.64,3.42-2.57,5.11M79.2,24.27a5.4,5.4,0,0,1-.77.36,8,8,0,0,1-1.16.33,8,8,0,0,1-1.54.14,6,6,0,0,1-2.07-.35,4.19,4.19,0,0,1-1.67-1,4.82,4.82,0,0,1-1.11-1.7,6.24,6.24,0,0,1-.41-2.34,6,6,0,0,1,.41-2.25,4.92,4.92,0,0,1,2.81-2.76,6.15,6.15,0,0,1,2.12-.37,5.57,5.57,0,0,1,3.71,1.16,2.17,2.17,0,0,1-.18,1,1.76,1.76,0,0,1-.23.37,1.79,1.79,0,0,1-.27.28,1.88,1.88,0,0,1-.23.16L78.28,17a3,3,0,0,0-.56-.37,4.71,4.71,0,0,0-.81-.32,4,4,0,0,0-1-.13,3.2,3.2,0,0,0-1.29.26,2.82,2.82,0,0,0-1,.71,3.29,3.29,0,0,0-.71,1.12,4.48,4.48,0,0,0-.22,1.45,3.64,3.64,0,0,0,.86,2.62,3.08,3.08,0,0,0,2.32.9,5,5,0,0,0,1.09-.12,5.91,5.91,0,0,0,.82-.24,2.81,2.81,0,0,0,.55-.27l.27-.18,1,1.61a2.31,2.31,0,0,1-.36.25m10-1.34a3.15,3.15,0,0,1-.88,1.1,3.21,3.21,0,0,1-1.27.62,6.06,6.06,0,0,1-1.53.2H81.28V15a2.58,2.58,0,0,1,2.15-.43V18h1.75a8.31,8.31,0,0,1,1.79.19,3.76,3.76,0,0,1,1.37.57,2.5,2.5,0,0,1,.88,1,3.69,3.69,0,0,1,.3,1.57A3.82,3.82,0,0,1,89.17,23" transform="translate(0 -0.24)"/><path class="cls-2" d="M86.68,20.06a3.84,3.84,0,0,0-1.8-.32h-.83a2,2,0,0,0-.64.06V23H85.1a2.68,2.68,0,0,0,1.56-.4,1.48,1.48,0,0,0,.59-1.32A1.29,1.29,0,0,0,86.66,20" transform="translate(0 -0.24)"/><path class="cls-2" d="M45.7,18.16l-.41-1-.23-.59q-.08.15-.24.57c-.12.28-.25.61-.4,1s-.33.81-.51,1.27l-.55,1.39h3.39c-.17-.46-.36-.92-.54-1.39s-.35-.88-.51-1.27" transform="translate(0 -0.24)"/><path class="cls-2" d="M15.82,20.38a1.8,1.8,0,0,0-.63-.21,5.93,5.93,0,0,0-.84-.06,8.39,8.39,0,0,0-1,.06l-.68.08V23h2.05a2.1,2.1,0,0,0,.61-.09,1.5,1.5,0,0,0,.54-.26,1.44,1.44,0,0,0,.37-.48,1.68,1.68,0,0,0,.14-.7,1.46,1.46,0,0,0-.14-.68,1,1,0,0,0-.4-.43" transform="translate(0 -0.24)"/><path class="cls-2" d="M56.55,16.46a2.47,2.47,0,0,0-.47-.11,5.23,5.23,0,0,0-.56,0h-1.4v3.43l.46.08a4.87,4.87,0,0,0,.76.06,3.11,3.11,0,0,0,1.09-.17,1.83,1.83,0,0,0,.67-.43,1.41,1.41,0,0,0,.34-.59,2,2,0,0,0,.1-.64,2,2,0,0,0-.24-.93,1.29,1.29,0,0,0-.75-.66" transform="translate(0 -0.24)"/><path class="cls-3" d="M49.63,39.27H43.47c1.92,1.48,4.29,3,6.21,4.44h0c1.93-1.48,4.28-3,6.22-4.44Z" transform="translate(0 -0.24)"/><path class="cls-3" d="M15.44,75.74A194.17,194.17,0,0,1,6.32,57C5.65,67.35,7.79,75.53,10.1,82.7c.09.29.35,1,.44,1.28a57,57,0,0,1,5.54-7.23c-.12-.19-.53-.78-.64-1" transform="translate(0 -0.24)"/><path class="cls-3" d="M6.24,39.26V51A112.18,112.18,0,0,1,25.06,39.26Z" transform="translate(0 -0.24)"/><path class="cls-3" d="M30.24,42H26.08c-.31.86-.52,1.46-.85,2.4H21.81c-.42,1.12-.71,1.85-1.14,3l-3.58.06c-.54,1.31-.88,2.17-1.39,3.41H12.07l-2.09,5h3.69c-.55,1.36-1,2.42-1.68,4.2h4c-.54,1.47-.94,2.59-1.6,4.46h4.28c-.48,1.55-.85,2.72-1.43,4.64h6c.46-1.9.74-3.07,1.13-4.62h4.25c.37-1.87.59-3,.9-4.51h3.85c.28-1.81.46-2.91.69-4.32H37.5c.29-2.19.42-3.25.69-5.19l-3.31.08c.21-1.28.36-2.15.59-3.46l-3.29.06.65-2.92H29.6a1.15,1.15,0,0,1,.1-.33c.21-.75.36-1.29.58-2m.27,6.57c-.25,1-.44,1.91-.78,3.37H33.1c-.16.88-.29,1.64-.46,2.6H29.19c-.34,1.56-.56,2.55-.86,4H24.52c-.44,1.67-.41,1.49-.79,2.94h-3c.44-1.46.44-1.27.94-2.94H17.88l1.39-3.9H15.85l1-2.52h3.33c.52-1.44.83-2.29,1.22-3.34l3.38-.06c.41-1.28.44-1.33.73-2.22h2.37c-.26.89-.26.94-.63,2.22l3.26-.05" transform="translate(0 -0.24)"/><path class="cls-3" d="M26.49,50.52H24.62l-.56,1.75H22.29c-.25.72-.37,1.09-.63,1.85h1.83l-.61,2h2c.21-.8.32-1.19.53-2h1.81c.19-.77.28-1.14.47-1.86H25.93c.21-.73.31-1.08.5-1.76" transform="translate(0 -0.24)"/><path class="cls-3" d="M46.19,99.57c0,2-.08,3.38-.14,5.66h7.28c0-2.28-.09-3.7-.14-5.66h5.4c-.12-2.34-.2-3.79-.32-5.77h5.22c-.23-2.38-.37-3.84-.58-5.81h5c-.44-3-.67-4.55-1.14-7.53h-4.7c-.22-2-.4-3.35-.67-5.6H57c-.14-1.88-.24-3.21-.41-5.35H52.39c0-1.64-.07-2.83-.12-4.55V64.5H47.13V65c-.06,1.72-.09,2.91-.13,4.55H42.88c-.18,2.14-.28,3.47-.42,5.35H38c-.28,2.25-.45,3.65-.68,5.6H32.66c-.48,3-.72,4.5-1.15,7.53h5c-.21,2-.35,3.43-.57,5.81h5.22c-.13,2-.2,3.43-.33,5.77h5.4M39.35,86.09c.12-1.29.22-2.33.35-3.6H44c.12-2.11.19-3.38.3-5.07h3.77c0-2,0-2.49.07-4.1h3.14c0,1.61,0,2.06.07,4.1H55.1c.11,1.69.18,3,.3,5.07h4.28c.13,1.27.23,2.31.35,3.6H55.6c.12,2.13.19,3.43.28,5.22H51.62c0,2.14.06,2.37.09,4.13h-4c0-1.76.06-2,.1-4.13H43.54c.1-1.79.16-3.09.28-5.22H39.39" transform="translate(0 -0.24)"/><path class="cls-3" d="M48.36,88.31H51V85.57h2.71c0-1.09-.07-1.64-.11-2.73H51V80.15H48.47v2.69H45.8c0,1.09-.06,1.64-.11,2.73H48.4v2.74" transform="translate(0 -0.24)"/><path class="cls-3" d="M83.94,75.74c-.11.19-.52.78-.63,1A57.43,57.43,0,0,1,88.88,84c.09-.29.35-1,.44-1.28C91.63,75.54,93.77,67.36,93.1,57A196,196,0,0,1,84,75.79" transform="translate(0 -0.24)"/><path class="cls-3" d="M93.14,39.26H74.32A110.9,110.9,0,0,1,93.14,51Z" transform="translate(0 -0.24)"/><path class="cls-3" d="M87.32,51l-3.63-.06-1.4-3.41-3.58-.06c-.43-1.11-.71-1.86-1.14-3H74.15c-.32-.94-.54-1.54-.84-2.4H69.15c.21.72.37,1.26.58,2a.75.75,0,0,0,.09.33H66.59l.65,2.92L64,47.25c.23,1.31.38,2.18.59,3.46H61.26c.27,1.93.41,3,.69,5.19H65.4c.22,1.41.4,2.51.68,4.32h3.86c.3,1.5.53,2.64.89,4.51h4.26c.38,1.55.67,2.71,1.12,4.62h6c-.58-1.92-.94-3.09-1.43-4.64h4.28c-.66-1.87-1.06-3-1.6-4.46h4c-.7-1.78-1.13-2.84-1.68-4.2h3.69l-2.08-5m-7.28,3.54c.55,1.53.9,2.51,1.39,3.9H77.68c.5,1.66.5,1.47.93,2.93h-3c-.39-1.46-.35-1.27-.8-2.94H71.1c-.31-1.39-.53-2.39-.87-4H66.78c-.17-1-.3-1.72-.46-2.6h3.33c-.33-1.46-.53-2.32-.78-3.37l3.26.05c-.37-1.28-.37-1.33-.63-2.22h2.37c.29.89.32.94.73,2.22l3.38.06c.39,1,.7,1.9,1.22,3.34h3.34c.34.86.63,1.6,1,2.52H80.11" transform="translate(0 -0.24)"/><path class="cls-3" d="M75.32,52.3c-.23-.72-.34-1.07-.55-1.75H72.89c.2.68.29,1,.5,1.76H71.63c.19.72.28,1.09.47,1.86h1.81l.54,1.94h2l-.57-2h1.83c-.25-.76-.38-1.13-.62-1.85H75.31" transform="translate(0 -0.24)"/><path class="cls-3" d="M75.75,75.46c-.84-1-1.71-2.11-2.61-3.18C72.14,71,71,69.8,70,68.57c-.75-.85-1.51-1.7-2.27-2.52-1.11-1.22-2.34-2.5-3.65-3.8-1.1-1.11-2.26-2.24-3.45-3.38s-2.7-2.55-4.09-3.82l-3.26-3c1.1-1,2.18-2,3.2-3,.63-.58,1.24-1.15,1.84-1.68L59.88,46l3.27-2.89,3.26-2.81,1.27-1.06H60.93l-1.27,1L56.34,43,54.72,44.4,52.82,46c-1,.87-2.06,1.78-3.13,2.72-1.07-.94-2.12-1.85-3.13-2.72l-1.9-1.63L43.05,43l-3.33-2.8a15.67,15.67,0,0,0-1.27-1h-6.7L33,40.29c.81.69,1.92,1.64,3.26,2.81L39.54,46l1.58,1.42c.59.53,1.2,1.1,1.83,1.68,1,.94,2.1,1.93,3.2,3l-3.26,3c-1.38,1.27-2.76,2.55-4.09,3.82s-2.34,2.27-3.45,3.38c-1.3,1.3-2.53,2.58-3.66,3.8-.75.82-1.51,1.67-2.26,2.52q-1.62,1.85-3.19,3.71c-.89,1.07-1.77,2.14-2.61,3.18-4.87,6-8.11,10.37-8.8,11.56-.52.91-1.72,3.17-.49,5.45a69.16,69.16,0,0,0,8.84,12.76,3.89,3.89,0,0,0,3.3,1.59c1.54-.24,9.37-.92,10.48-1.44s1.47-1.35.47-2.22a90.85,90.85,0,0,1-13.2-14.71c-.93-1.66,1.14-3.63,3.55-7.12.76-1.09,1.61-2.28,2.52-3.52s1.94-2.59,3-3.94c1.91-2.46,4-5,6-7.4,1.07-1.26,2.16-2.48,3.21-3.63.84-.9,1.64-1.75,2.44-2.55l1.44-1.45c1.11-1.11,2.2-2.19,3.29-3.24Q51.3,57.22,53,58.88c.48.47,1,1,1.45,1.45.79.79,1.6,1.65,2.43,2.55C57.91,64,59,65.25,60.07,66.51c2.06,2.4,4.11,4.94,6,7.4,1,1.35,2,2.67,3,3.94s1.75,2.43,2.51,3.52c2.41,3.49,4.48,5.46,3.55,7.12A92.52,92.52,0,0,1,61.94,103.2c-1,.87-.64,1.7.46,2.22s8.3,1.24,9.85,1.48a4.14,4.14,0,0,0,3.92-1.63A69.22,69.22,0,0,0,85,92.51c1.23-2.28,0-4.54-.49-5.45-.68-1.19-3.93-5.56-8.8-11.56" transform="translate(0 -0.24)"/><path class="cls-3" d="M28.7,110.54c5.81,5.66,13,10,21.29,13.49a68.26,68.26,0,0,0,20.77-13.49,125.82,125.82,0,0,0-42.06,0" transform="translate(0 -0.24)"/></svg>