<svg xmlns="http://www.w3.org/2000/svg" viewBox="0 0 107.62 166.23"><defs><style>.cls-1{fill:#fff;}.cls-2{fill:#21b14c;}.cls-3{fill:#f02729;}.cls-4{fill:#FFFFFF;}</style></defs><title>Монтажная область 2</title><g id="Слой_1" data-name="Слой 1"><path class="cls-1" d="M53.81,35.25H4.12v69c0,39.46,49.69,62,49.69,62s49.69-22.56,49.69-62v-69Z"/><path class="cls-2" d="M10.32,68.21h87v-28h-87Zm11.54-9.15a4.46,4.46,0,0,1-3,.81H14.66V50.75a1.21,1.21,0,0,1,.29-.88,1.27,1.27,0,0,1,.92-.28h6.41a2.44,2.44,0,0,1-.38,1.9H16.77v1.88l.79-.06q.4,0,.93,0a8.72,8.72,0,0,1,1.77.17,3.63,3.63,0,0,1,1.36.55,2.53,2.53,0,0,1,.87,1,3.4,3.4,0,0,1,.3,1.5,3.24,3.24,0,0,1-.93,2.57m9.28-5.31s.32.13.32,1-.3.92-.3.92H26.74V58h4.64a3,3,0,0,1,.37,1.9H24.58V50.75a1.05,1.05,0,0,1,1.21-1.16h6a2,2,0,0,1-.37,1.9H26.74v2.26Zm11.07,6.12H40.06V51.49h-.6a3.63,3.63,0,0,0-1.11.15,2.14,2.14,0,0,0-.8.48,2.77,2.77,0,0,0-.53.81,21.29,21.29,0,0,0-.66,2.28c-.08.41-1.1,4.66-1.1,4.66H33.11c.22-.88,1.21-4.8,1.28-5.14a15.63,15.63,0,0,1,.84-2.86,4.08,4.08,0,0,1,1-1.31,3.7,3.7,0,0,1,1.4-.74,6.73,6.73,0,0,1,1.81-.23h1.62a2.11,2.11,0,0,1,.74.09.88.88,0,0,1,.39.31Zm10.24,0c-.09-.22-.19-.51-.34-.88l-.51-1.31H46.75c-.2.51-.36,1-.5,1.31s-.25.65-.35.88H43.72c.22-.59.46-1.2.71-1.83s.5-1.25.76-1.86l.74-1.79c.24-.58.47-1.11.68-1.59s.39-.91.55-1.28.29-.65.39-.85a2.2,2.2,0,0,1,.73-1,1.77,1.77,0,0,1,1-.26,1.84,1.84,0,0,1,1.31.45c.18.31.39.73.64,1.25s.5,1.1.77,1.74.55,1.29.83,2,.54,1.35.78,2,.48,1.23.68,1.76l.48,1.27Zm11.19-5.48A2.89,2.89,0,0,1,63,55.51a3.29,3.29,0,0,1-1.26.8,5.55,5.55,0,0,1-2,.3,8.86,8.86,0,0,1-1,0l-.53-.09v3.4h-2.1V50.75a1,1,0,0,1,1.2-1.16h2.83c.23,0,.46,0,.68,0a4.71,4.71,0,0,1,.61.12,2.94,2.94,0,0,1,1.06.48,2.84,2.84,0,0,1,.75.8,3.36,3.36,0,0,1,.42,1,4.11,4.11,0,0,1,.15,1.1,4.33,4.33,0,0,1-.2,1.28m7.89.73c-.94,1.7-1.88,3.33-2.85,4.88h-2.4c.31-.47.64-1,1-1.56s.69-1.18,1-1.8c-.34-.54-.66-1.06-1-1.57l-.86-1.41-.7-1.19-.52-.89c-.09-.15-.83-1.54-.83-1.54a2.73,2.73,0,0,1,2.37-.29c.13.26.3.58.51.94L68,51.88c.24.42.49.85.76,1.29l.75,1.28c.39-.72.74-1.4,1.08-2.06s1.05-2.1,1.31-2.64A2.81,2.81,0,0,1,74.1,50c-.78,1.71-1.64,3.42-2.57,5.11m11.79,4.17a5.77,5.77,0,0,1-.77.36,9.28,9.28,0,0,1-1.16.33,7.93,7.93,0,0,1-1.54.14,6.08,6.08,0,0,1-2.07-.35,4.35,4.35,0,0,1-1.67-1A4.83,4.83,0,0,1,75,57.06a6.23,6.23,0,0,1-.41-2.34A5.94,5.94,0,0,1,75,52.47a4.89,4.89,0,0,1,2.81-2.76,6.09,6.09,0,0,1,2.12-.37,5.61,5.61,0,0,1,3.71,1.16,2.25,2.25,0,0,1-.18,1,1.93,1.93,0,0,1-.23.37,1.82,1.82,0,0,1-.27.28,1.4,1.4,0,0,1-.23.16L82.4,52a2.86,2.86,0,0,0-.56-.37,4.41,4.41,0,0,0-.81-.32A3.85,3.85,0,0,0,80,51.18a3.16,3.16,0,0,0-1.29.26,2.78,2.78,0,0,0-1,.71A3.34,3.34,0,0,0,77,53.27a4.37,4.37,0,0,0-.22,1.45,3.62,3.62,0,0,0,.86,2.62,3.07,3.07,0,0,0,2.32.9,4.49,4.49,0,0,0,1.09-.12,5.45,5.45,0,0,0,.82-.24,3.13,3.13,0,0,0,.55-.27l.27-.18,1,1.61a2.67,2.67,0,0,1-.36.25m10-1.34a3.11,3.11,0,0,1-.88,1.1,3.28,3.28,0,0,1-1.27.62,5.94,5.94,0,0,1-1.53.2H85.4V50a2.57,2.57,0,0,1,2.15-.43V53l.75,0c.28,0,.6,0,1,0a8.12,8.12,0,0,1,1.79.19,3.7,3.7,0,0,1,1.37.57,2.48,2.48,0,0,1,.88,1,3.7,3.7,0,0,1,.3,1.57A3.81,3.81,0,0,1,93.29,58"/><path class="cls-2" d="M90.8,55.07A3.93,3.93,0,0,0,89,54.75l-.83,0c-.26,0-.47,0-.64.06V58h1.69a2.69,2.69,0,0,0,1.56-.4,1.47,1.47,0,0,0,.59-1.32,1.3,1.3,0,0,0-.59-1.24"/><path class="cls-2" d="M49.82,53.17l-.41-1-.23-.59q-.07.15-.24.57c-.12.28-.25.61-.4,1s-.33.81-.51,1.27-.37.93-.55,1.39h3.39c-.17-.46-.36-.92-.54-1.39s-.35-.88-.51-1.27"/><path class="cls-2" d="M19.94,55.39a1.86,1.86,0,0,0-.63-.21,5.35,5.35,0,0,0-.84-.06,7.16,7.16,0,0,0-1,.06l-.68.08V58h2.05a2.1,2.1,0,0,0,.61-.09,1.43,1.43,0,0,0,.54-.26,1.47,1.47,0,0,0,.37-.48,1.68,1.68,0,0,0,.14-.7,1.46,1.46,0,0,0-.14-.68,1,1,0,0,0-.4-.43"/><path class="cls-2" d="M60.67,51.47a2.71,2.71,0,0,0-.47-.11,5.27,5.27,0,0,0-.56,0h-1.4v3.43l.46.08a4.34,4.34,0,0,0,.76.06,3,3,0,0,0,1.09-.17,1.8,1.8,0,0,0,.67-.43,1.41,1.41,0,0,0,.34-.59,2.08,2.08,0,0,0,.1-.64,2,2,0,0,0-.24-.93,1.29,1.29,0,0,0-.75-.66"/><path class="cls-3" d="M53.75,74.28H47.59c1.92,1.48,4.29,3,6.21,4.44h0c1.93-1.48,4.28-3,6.22-4.44H53.75Z"/><path class="cls-3" d="M19.56,110.75A194.56,194.56,0,0,1,10.44,92c-.67,10.36,1.47,18.54,3.78,25.71.09.29.35,1,.44,1.28a56.94,56.94,0,0,1,5.54-7.23c-.12-.19-.53-.78-.64-1"/><path class="cls-3" d="M10.36,74.27V86A111.87,111.87,0,0,1,29.18,74.27Z"/><path class="cls-3" d="M34.36,77H30.2c-.31.86-.52,1.46-.85,2.4l-3.42,0c-.42,1.12-.71,1.85-1.14,3l-3.58.06c-.54,1.31-.88,2.17-1.39,3.41l-3.63,0-2.09,5,3.69,0c-.55,1.36-1,2.42-1.68,4.2h4c-.54,1.47-.94,2.59-1.6,4.46h4.28c-.48,1.55-.85,2.72-1.43,4.64h6c.46-1.9.74-3.07,1.13-4.62h4.25c.37-1.87.59-3,.9-4.51h3.85c.28-1.81.46-2.91.69-4.32l3.44,0c.29-2.19.42-3.25.69-5.19L39,85.61c.21-1.28.36-2.15.59-3.46l-3.29.06.65-2.92-3.23,0c0-.12.07-.23.1-.33.21-.75.36-1.29.58-2m.27,6.57c-.25,1.05-.44,1.91-.78,3.37l3.33,0c-.16.88-.29,1.64-.46,2.6l-3.45,0c-.34,1.56-.56,2.55-.86,4H28.64c-.44,1.67-.41,1.49-.79,2.94h-3c.44-1.46.44-1.27.94-2.94H22l1.39-3.9-3.42,0,1-2.52,3.33,0c.52-1.44.83-2.29,1.22-3.34l3.38-.06c.41-1.28.44-1.33.73-2.22l2.37,0c-.26.89-.26.94-.63,2.22l3.26-.05"/><path class="cls-3" d="M30.61,85.53l-1.87,0-.56,1.75-1.77,0c-.25.72-.37,1.09-.63,1.85l1.83,0L27,91.1h2c.21-.8.32-1.19.53-1.95l1.81,0c.19-.77.28-1.14.47-1.86l-1.76,0c.21-.73.31-1.08.5-1.76"/><path class="cls-3" d="M50.31,134.58c-.05,2-.08,3.38-.14,5.66h7.28c-.05-2.28-.09-3.7-.14-5.66l5.4,0c-.12-2.34-.2-3.79-.32-5.77l5.22,0c-.23-2.38-.37-3.84-.58-5.81l5,0c-.44-3-.67-4.55-1.14-7.53l-4.7,0c-.22-2-.4-3.35-.67-5.6l-4.44,0c-.14-1.88-.24-3.21-.41-5.35H56.51c0-1.64-.07-2.83-.12-4.55,0-.15,0-.3,0-.46H51.25c0,.16,0,.31,0,.46-.06,1.72-.09,2.91-.13,4.55H47c-.18,2.14-.28,3.47-.42,5.35l-4.43,0c-.28,2.25-.45,3.65-.68,5.6l-4.69,0c-.48,3-.72,4.5-1.15,7.53l5,0c-.21,2-.35,3.43-.57,5.81l5.22,0c-.13,2-.2,3.43-.33,5.77l5.4,0M43.47,121.1c.12-1.29.22-2.33.35-3.6l4.28,0c.12-2.11.19-3.38.3-5.07h3.77c0-2,0-2.49.07-4.1h3.14c0,1.61,0,2.06.07,4.1h3.77c.11,1.69.18,3,.3,5.07l4.28,0c.13,1.27.23,2.31.35,3.6l-4.43,0c.12,2.13.19,3.43.28,5.22l-4.26,0c0,2.14.06,2.37.09,4.13h-4c0-1.76.06-2,.1-4.13l-4.27,0c.1-1.79.16-3.09.28-5.22l-4.43,0"/><path class="cls-3" d="M52.48,123.32h2.66c0-1.1,0-1.65,0-2.74h2.71c-.05-1.09-.07-1.64-.11-2.73H55.07c0-1.08,0-1.62,0-2.69H52.59c0,1.07,0,1.61,0,2.69H49.92c0,1.09-.06,1.64-.11,2.73h2.71c0,1.09,0,1.64,0,2.74"/><path class="cls-3" d="M88.06,110.75c-.11.19-.52.78-.63,1A57.81,57.81,0,0,1,93,119c.09-.29.35-1,.44-1.28,2.31-7.17,4.45-15.35,3.78-25.71a194.56,194.56,0,0,1-9.12,18.79"/><path class="cls-3" d="M97.26,74.27H78.44A111.47,111.47,0,0,1,97.26,86Z"/><path class="cls-3" d="M91.44,86l-3.63-.06-1.4-3.41-3.58-.06c-.43-1.11-.71-1.86-1.14-3l-3.42,0c-.32-.94-.54-1.54-.84-2.4H73.27c.21.72.37,1.26.58,2q0,.15.09.33l-3.23,0,.65,2.92-3.29-.06c.23,1.31.38,2.18.59,3.46l-3.28,0c.27,1.93.41,3,.69,5.19l3.45,0c.22,1.41.4,2.51.68,4.32h3.86c.3,1.5.53,2.64.89,4.51h4.26c.38,1.55.67,2.71,1.12,4.62h6c-.58-1.92-.94-3.09-1.43-4.64h4.28c-.66-1.87-1.06-3-1.6-4.46h4c-.7-1.78-1.13-2.84-1.68-4.2l3.69,0-2.08-5M84.23,89.6c.55,1.53.9,2.51,1.39,3.9H81.8c.5,1.66.5,1.47.93,2.93h-3c-.39-1.46-.35-1.27-.8-2.94H75.22c-.31-1.39-.53-2.39-.87-4l-3.45,0c-.17-1-.3-1.72-.46-2.6l3.33,0c-.33-1.46-.53-2.32-.78-3.37l3.26.05c-.37-1.28-.37-1.33-.63-2.22l2.37,0c.29.89.32.94.73,2.22l3.38.06c.39,1,.7,1.9,1.22,3.34l3.34,0c.34.86.63,1.6,1,2.52l-3.43,0"/><path class="cls-3" d="M79.44,87.31c-.23-.72-.34-1.07-.55-1.75l-1.88,0c.2.68.29,1,.5,1.76l-1.76,0c.19.72.28,1.09.47,1.86l1.81,0,.54,1.94h2L80,89.16l1.83,0c-.25-.76-.38-1.13-.62-1.85l-1.78,0"/><path class="cls-3" d="M79.87,110.47c-.84-1-1.71-2.11-2.61-3.18-1-1.24-2.11-2.48-3.19-3.71-.75-.85-1.51-1.7-2.27-2.52-1.11-1.22-2.34-2.5-3.65-3.8-1.1-1.11-2.26-2.24-3.45-3.38s-2.7-2.55-4.09-3.82c-1.08-1-2.18-2-3.26-3,1.1-1,2.18-2,3.2-3,.63-.58,1.24-1.15,1.84-1.68L64,81l3.27-2.89,3.26-2.81,1.27-1.06H65.05l-1.27,1-3.32,2.8-1.62,1.37-1.9,1.63c-1,.87-2.06,1.78-3.13,2.72-1.07-.94-2.12-1.85-3.13-2.72l-1.9-1.63-1.61-1.37-3.33-2.8c-.45-.38-.87-.73-1.27-1h-6.7l1.26,1.06c.81.69,1.92,1.64,3.26,2.81L43.66,81l1.58,1.42c.59.53,1.2,1.1,1.83,1.68,1,.94,2.1,1.93,3.2,3-1.08,1-2.18,2-3.26,3-1.38,1.27-2.76,2.55-4.09,3.82s-2.34,2.27-3.45,3.38c-1.3,1.3-2.53,2.58-3.66,3.8-.75.82-1.51,1.67-2.26,2.52q-1.62,1.85-3.19,3.71c-.89,1.07-1.77,2.14-2.61,3.18-4.87,6-8.11,10.37-8.8,11.56-.52.91-1.72,3.17-.49,5.45a69.29,69.29,0,0,0,8.84,12.76,3.89,3.89,0,0,0,3.3,1.59c1.54-.24,9.37-.92,10.48-1.44s1.47-1.35.47-2.22a90.77,90.77,0,0,1-13.2-14.71c-.93-1.66,1.14-3.63,3.55-7.12.76-1.09,1.61-2.28,2.52-3.52s1.94-2.59,3-3.94c1.91-2.46,4-5,6-7.4,1.07-1.26,2.16-2.48,3.21-3.63.84-.9,1.64-1.75,2.44-2.55.48-.49,1-1,1.44-1.45q1.66-1.66,3.29-3.24,1.62,1.58,3.29,3.24c.48.47,1,1,1.45,1.45.79.79,1.6,1.65,2.43,2.55,1.06,1.15,2.14,2.37,3.22,3.63,2.06,2.4,4.11,4.94,6,7.4,1,1.35,2,2.67,3,3.94s1.75,2.43,2.51,3.52c2.41,3.49,4.48,5.46,3.55,7.12s-8,10.34-13.19,14.71c-1,.87-.64,1.7.46,2.22s8.3,1.24,9.85,1.48a4.13,4.13,0,0,0,3.92-1.63,69,69,0,0,0,8.85-12.76c1.23-2.28,0-4.54-.49-5.45-.68-1.19-3.93-5.56-8.8-11.56"/><path class="cls-3" d="M32.82,145.55c5.81,5.66,13,10,21.29,13.49a68.32,68.32,0,0,0,20.77-13.49,125.8,125.8,0,0,0-42.06,0"/><path class="cls-4" d="M27.87,5.4,27,8.86h4.19V2h-.32a3.26,3.26,0,0,0-1.14.17,2,2,0,0,0-.8.5,2.74,2.74,0,0,0-.54.86c-.14.35-.54,1.89-.54,1.89M24.78,8.86,25.85,4.5a11.06,11.06,0,0,1,.65-2.1,4.54,4.54,0,0,1,1-1.39A3.75,3.75,0,0,1,29,.22,6.17,6.17,0,0,1,30.82,0h1.49a2.15,2.15,0,0,1,.79.1.72.72,0,0,1,.42.71V8.86h1.73v3.77H33V10.87H25.49v1.76H23.22V8.86Z"/><path class="cls-4" d="M55.05,3.64a2.14,2.14,0,0,0-.25-1A1.39,1.39,0,0,0,54,2a2.62,2.62,0,0,0-.5-.12,4,4,0,0,0-.59,0H51.4V5.43a4.55,4.55,0,0,0,.49.09,4.87,4.87,0,0,0,.81.06,3.2,3.2,0,0,0,1.17-.18A1.85,1.85,0,0,0,54.58,5,1.44,1.44,0,0,0,55,4.32a2.33,2.33,0,0,0,.1-.68M53.47,0a5.79,5.79,0,0,1,.72,0,6,6,0,0,1,.66.12A3.17,3.17,0,0,1,56,.64a3,3,0,0,1,.79.83,3.71,3.71,0,0,1,.46,1.06,4.56,4.56,0,0,1,.15,1.16,4.49,4.49,0,0,1-.21,1.36,2.93,2.93,0,0,1-.72,1.19,3.62,3.62,0,0,1-1.35.84A6,6,0,0,1,53,7.4a10.14,10.14,0,0,1-1-.05l-.56-.09v3.6H49.15V1.2c0-.83.43-1.24,1.29-1.24Z"/><path class="cls-4" d="M101.77,3.47a1.76,1.76,0,0,0,.11.64,1.27,1.27,0,0,0,.38.55A2,2,0,0,0,103,5a4.18,4.18,0,0,0,1.16.14,6,6,0,0,0,.85,0,2.7,2.7,0,0,0,.37-.07V1.79h-1.56a4.89,4.89,0,0,0-.54,0,2.46,2.46,0,0,0-.47.09,1.31,1.31,0,0,0-.81.61,1.93,1.93,0,0,0-.22,1m5.85,7.37h-2.25V7l-.51,0-.41,0a2,2,0,0,0-1.29.47,5.83,5.83,0,0,0-2.08,3.35l-2.25,0a7.61,7.61,0,0,1,2.64-4.41,2.35,2.35,0,0,1-.85-.47,2.89,2.89,0,0,1-.64-.71,3.61,3.61,0,0,1-.42-.86,3.25,3.25,0,0,1-.14-.91,4.09,4.09,0,0,1,.17-1.17,3.23,3.23,0,0,1,.5-1A3.19,3.19,0,0,1,101,.52a3.58,3.58,0,0,1,1.2-.46l.6-.08.63,0h3c.85,0,1.28.41,1.28,1.23Z"/><path class="cls-4" d="M21,2a2.12,2.12,0,0,0,.39-2H15c-.86,0-1.29.41-1.29,1.24v9.66h7.65a3.24,3.24,0,0,0-.39-2H16V6.38h4.73s.32-.07.32-1-.34-1-.34-1H16V2Z"/><path class="cls-4" d="M45.19,2a2.12,2.12,0,0,0,.39-2H39.21c-.86,0-1.28.41-1.28,1.24v9.66h7.66a3.32,3.32,0,0,0-.39-2h-5V6.38H45s.32-.07.32-1-.34-1-.34-1H40.23V2Z"/><path class="cls-4" d="M8.16,6.94a2.6,2.6,0,0,1-1.69.88v-5a2.64,2.64,0,0,1,1.69.87,2.57,2.57,0,0,1,.51,1.62,2.55,2.55,0,0,1-.51,1.6M4.34,7.8a2.51,2.51,0,0,1-1.61-.89,2.57,2.57,0,0,1-.49-1.57,2.54,2.54,0,0,1,.49-1.58,2.5,2.5,0,0,1,1.61-.88Zm6.25-4a4.1,4.1,0,0,0-.91-1.29,4.92,4.92,0,0,0-1.41-1A6.07,6.07,0,0,0,6.47,1V-.09A2.57,2.57,0,0,0,4.35.33V1a6.42,6.42,0,0,0-1.77.53,5.06,5.06,0,0,0-1.37.95A4.08,4.08,0,0,0,.31,3.8,3.82,3.82,0,0,0,0,5.34,3.75,3.75,0,0,0,.31,6.88,4,4,0,0,0,1.2,8.16a4.85,4.85,0,0,0,1.37.95,5.81,5.81,0,0,0,1.77.54v1.21H6.46V10h0V9.67a6.07,6.07,0,0,0,1.8-.52,4.92,4.92,0,0,0,1.41-1,4.1,4.1,0,0,0,.91-1.29,3.77,3.77,0,0,0,.32-1.57,3.69,3.69,0,0,0-.32-1.56"/><path class="cls-4" d="M93.59-.09h0c-.24.16-1.68,2.28-1.91,2.59s-.45.62-.67.94-.43.64-.63,1-.37.58-.52.83-.37.64-.5.88a6.57,6.57,0,0,0-.33.61l-.23.48-.16.36V-.08a2.77,2.77,0,0,0-2.31.46V10.86h2.27l3.07-4.67a21.83,21.83,0,0,0,1.19-1.94c.31-.6.58-1.09.79-1.5h0c-.05.53-.07,1-.08,1.54v6.57h2.31V.38a2.73,2.73,0,0,0-2.26-.47"/><path class="cls-4" d="M81.75,8.84V.39a2.79,2.79,0,0,0-2.31-.46V8.84H74.63V-.07a2.77,2.77,0,0,0-2.31.46V10.88h8.31v1.75h2.28V8.84Z"/><path class="cls-4" d="M62.21,6.59c.19-.48.38-1,.58-1.46s.38-.94.54-1.35l.43-1.06c.12-.29.21-.49.26-.6,0,.12.13.32.25.62l.43,1,.55,1.34.57,1.46Zm7.21,2.93L68.7,7.67c-.15-.39-.83-2.11-1-2.59s-.49-1.18-.72-1.69-.41-1-.59-1.35-.31-.69-.42-.9a2.37,2.37,0,0,0-.77-1,1.89,1.89,0,0,0-.88-.26h-.19a1.86,1.86,0,0,0-1,.27,2.38,2.38,0,0,0-.78,1l-.42.9-.59,1.35-.72,1.69C60.3,5.69,60,6.32,59.76,7l-.8,2c-.27.66-.52,1.31-.75,1.93h2.32c.1-.24.22-.55.37-.93s.32-.84.53-1.38H66.6l.54,1.39c.16.38.27.69.36.92h2.43c-.12-.34-.3-.79-.51-1.34"/><path class="cls-4" d="M82.68,21.12a2,2,0,0,0,.11.64,1.47,1.47,0,0,0,.38.55,1.91,1.91,0,0,0,.74.38,3.76,3.76,0,0,0,1.15.14,6.2,6.2,0,0,0,.86,0,1.14,1.14,0,0,0,.36-.07V19.44H84.73l-.55,0a1.94,1.94,0,0,0-.47.1,1.29,1.29,0,0,0-.81.6,2,2,0,0,0-.22.95m5.86,7.38H86.28V24.63l-.5.05h-.42a2.07,2.07,0,0,0-1.28.47A5.77,5.77,0,0,0,82,28.51H79.75a7.56,7.56,0,0,1,2.63-4.41,2.61,2.61,0,0,1-.85-.47,3.67,3.67,0,0,1-.64-.72,3,3,0,0,1-.41-.86,2.88,2.88,0,0,1-.15-.9A4.1,4.1,0,0,1,80.5,20,3.1,3.1,0,0,1,81,19a2.93,2.93,0,0,1,.86-.78,3.84,3.84,0,0,1,1.19-.46c.18,0,.38-.06.61-.08l.63,0h3c.86,0,1.29.41,1.29,1.24Z"/><path class="cls-4" d="M38.79,24.51a3.81,3.81,0,0,1-.63,1.18,3,3,0,0,1-1,.78,3.49,3.49,0,0,1-2.69,0,3,3,0,0,1-1-.78,3.45,3.45,0,0,1-.64-1.18,4.52,4.52,0,0,1-.23-1.46,4.61,4.61,0,0,1,.23-1.46,3.32,3.32,0,0,1,.64-1.17,3.06,3.06,0,0,1,1-.76,3.37,3.37,0,0,1,2.69,0,3,3,0,0,1,1,.76,3.65,3.65,0,0,1,.63,1.17A4.61,4.61,0,0,1,39,23.05a4.52,4.52,0,0,1-.23,1.46m1-5.42a5.33,5.33,0,0,0-1.74-1.17,6.26,6.26,0,0,0-4.51,0,5.33,5.33,0,0,0-1.74,1.17,5.12,5.12,0,0,0-1.13,1.76,6.28,6.28,0,0,0,0,4.41A5.26,5.26,0,0,0,31.81,27a5,5,0,0,0,1.74,1.17,6.13,6.13,0,0,0,4.51,0A5,5,0,0,0,39.8,27a5.26,5.26,0,0,0,1.13-1.77,6.28,6.28,0,0,0,0-4.41,5.12,5.12,0,0,0-1.13-1.76"/><path class="cls-4" d="M76.35,19.63a2.11,2.11,0,0,0,.38-2H70.36c-.85,0-1.28.41-1.28,1.23v9.66h7.66a3.21,3.21,0,0,0-.39-2h-5V24h4.73s.32-.08.32-1-.34-1-.34-1H71.38V19.63Z"/><path class="cls-4" d="M52.26,25.62c-.83-.94-1.74-1.92-2.74-2.93l.54-.56q.34-.36.78-.78l.91-.87.92-.87.82-.76c.25-.23.46-.41.62-.54a2.15,2.15,0,0,0-2.36-.6l-1.56,1.44-1.12,1.07-1.06,1-.85.87V17.57a2.77,2.77,0,0,0-2.31.46V28.51h2.31V23.57c.28.25.61.56,1,.94s.8.8,1.22,1.25.83.9,1.25,1.38.79.94,1.13,1.37h2.83a34.53,34.53,0,0,0-2.32-2.89"/><path class="cls-4" d="M64.38,25.62c-.83-.94-1.75-1.92-2.75-2.93l.54-.56.78-.78.92-.87.92-.87.82-.76c.25-.23.45-.41.61-.54a2.14,2.14,0,0,0-2.35-.6l-1.56,1.44-1.12,1.07c-.38.35-.73.7-1.06,1l-.86.87V17.57A2.76,2.76,0,0,0,57,18V28.51h2.3V23.57c.28.25.61.56,1,.94s.79.8,1.21,1.25.84.9,1.25,1.38.79.94,1.14,1.37H66.7a34.53,34.53,0,0,0-2.32-2.89"/><path class="cls-4" d="M64.38,25.62c-.83-.94-1.75-1.92-2.75-2.93l.54-.56.78-.78.92-.87.92-.87.82-.76c.25-.23.45-.41.61-.54a2.14,2.14,0,0,0-2.35-.6l-1.56,1.44-1.12,1.07c-.38.35-.73.7-1.06,1l-.86.87V17.57A2.76,2.76,0,0,0,57,18V28.51h2.3V23.57c.28.25.61.56,1,.94s.79.8,1.21,1.25.84.9,1.25,1.38.79.94,1.14,1.37H66.7a34.53,34.53,0,0,0-2.32-2.89"/><path class="cls-4" d="M28.37,27.7l-1-1.31-1.26-1.63c-.46-.59-.91-1.19-1.36-1.79.38-.54.76-1,1.14-1.56s.73-1,1.06-1.4l.89-1.15.62-.77a3,3,0,0,0-.5-.33,2.11,2.11,0,0,0-1.86-.1c-.12.12-2.42,3.25-2.66,3.58-.31-.4-.61-.79-.89-1.17l-.35-.45c-.69-.93-1.39-1.89-1.46-1.95a2.23,2.23,0,0,0-2,.11,2.42,2.42,0,0,0-.52.34c.15.19.37.46.64.82l.94,1.2,2.28,3-1.27,1.74-1.17,1.61-.93,1.29-.55.76h2.61l.45-.63.6-.87L22.6,26l.82-1.15.9,1.19c.29.39.56.75.82,1.08l.65.87c.18.25.33.43.42.56H29l-.62-.81"/></g></svg>